<?xml version="1.0" encoding="UTF-8" standalone="no"?>
<svg xmlns:rdf="http://www.w3.org/1999/02/22-rdf-syntax-ns#" xmlns="http://www.w3.org/2000/svg" height="567.39" viewBox="0 0 800.00006 567.3907" width="800" version="1.1" xmlns:cc="http://creativecommons.org/ns#" xmlns:dc="http://purl.org/dc/elements/1.1/">
<path d="m477.86 564.12c-1.3545-1.729-3.0902-3.9155-3.8571-4.8588-0.76686-0.94337-1.3943-1.8832-1.3943-2.0886 0-0.2052-1.1583-1.4017-2.5739-2.6585-4.4821-3.9792-7.9363-7.6265-13.281-14.023-2.8566-3.4188-6.189-7.3429-7.4054-8.7202-1.2164-1.3772-3.297-3.8572-4.6234-5.511-4.042-5.0394-10.274-11.906-18.359-20.228-8.3914-8.6379-13.261-13.955-15.81-17.261-4.0453-5.2484-6.8339-9.1687-6.8339-9.6074 0-0.26206-1.2916-1.9268-2.8702-3.6992-4.6617-5.2337-9.0932-11.393-16.556-23.01-2.028-3.1573-4.6069-6.7475-5.7308-7.9783s-3.766-4.5521-5.8713-7.3806c-5.0431-6.7756-5.6973-7.4106-9.3394-9.0657-4.8761-2.2158-11.651-5.1093-13.904-5.9384-1.1329-0.41692-3.9622-1.7163-6.2872-2.8874-2.3251-1.1712-4.8424-2.3108-5.5942-2.5324-1.4479-0.42692-12.44-5.5473-16.128-7.5127-14.813-7.8944-15.142-8.0842-22.066-12.743-4.4381-2.9861-7.459-5.7109-13.447-12.129-7.2953-7.8195-13.345-13.84-13.906-13.84-0.20371 0-0.77482-0.68467-1.2691-1.5215-1.4921-2.5258-7.3891-8.4757-8.0163-8.0881-0.32212 0.19908-1.0228-0.16977-1.557-0.81966-0.53422-0.6499-2.0784-2.3429-3.4315-3.7623-3.7648-3.9491-8.5885-9.4838-10.321-11.843-0.85718-1.1669-2.3401-2.8596-3.2955-3.7617-0.95533-0.90208-3.0934-3.2393-4.7512-5.1938-3.4712-4.0924-25.325-26.788-34.778-36.118-6.0483-5.9694-9.9111-10.623-13.396-16.139-1.7903-2.8338-2.791-3.0104-4.4377-0.78308-4.0062 5.4186-16.513 5.8441-22.787 0.77511l-2.0967-1.6941 0.89911-3.773c1.0698-4.4892 2.1522-11.206 1.8539-11.504-0.11649-0.11649 0.0583-1.8688 0.38844-3.8942 0.34469-2.1148 0.45031-5.777 0.24806-8.6028-0.19368-2.7062-0.37819-7.035-0.41003-9.6194-0.0747-6.065-1.2878-7.7395-3.77-5.204-1.9183 1.9595-5.2928 4.1089-7.8888 5.0248-1.1312 0.3991-3.1654 1.3754-4.5204 2.1695-3.8771 2.2721-13.018 3.2201-16.585 1.7199-1.1056-0.46498-2.6649-0.98548-3.465-1.1566-1.5598-0.33368-4.8324-4.2648-4.8324-5.8049 0-0.49555-0.45879-1.3162-1.0195-1.8236-1.2065-1.0918-0.50798-5.766 2.14-14.32 0.28583-0.92342 0.51801-2.2765 0.51593-3.0069-0.003-1.1696 0.85514-5.5808 2.6524-13.629 0.30215-1.3531 1.0653-3.9294 1.696-5.725 1.1858-3.3764 1.1486-4.6626-0.13465-4.6626-0.80003 0-1.4322-1.0465-2.9724-4.9204-1.9113-4.8074-4.5683-8.8394-5.3808-8.1651-0.40723 0.33798-1.0562 0.50389-1.4422 0.36871-0.38597-0.13519-1.6551 0.60675-2.8203 1.6488-8.425 7.5344-26.291 8.9746-32.82 2.6458-7.2001-6.9793-8.4265-15.142-3.231-21.505 1.1684-1.431 2.7835-3.5858 3.5891-4.7886 0.80562-1.2028 2.1859-3.171 3.0672-4.3737 0.88134-1.2028 3.9039-5.6518 6.7168-9.8866 4.7545-7.158 7.2227-10.056 7.9477-9.3309 0.16409 0.16409-0.25775 1.2338-0.93741 2.3773-2.5929 4.3622-11.185 17.393-14.483 21.964-3.1785 4.4062-2.9483 6.0468 0.42783 3.0494 4.6497-4.1281 9.4939-9.3932 11.567-12.573 1.1676-1.7903 2.5357-3.7472 3.0402-4.3486 0.50447-0.60138 1.6893-3.0898 2.633-5.5298l1.7158-4.4364-4.2566-8.138c-2.3411-4.4759-5.2924-9.8602-6.5584-11.965s-2.9222-5.1541-3.6804-6.7761c-0.75825-1.622-2.1656-4.0822-3.1275-5.4672-2.2283-3.2084-2.3944-8.5121-0.40518-12.936 2.9358-6.5296 3.0552-8.7534 0.54198-10.098-0.60292-0.32267-0.94315-0.83433-0.75607-1.137 0.44974-0.72768-0.19264-3.2218-0.8298-3.2218-0.27471 0-0.65165 0.47952-0.83767 1.0656-1.4671 4.6226-8.4829 5.9195-8.4829 1.5681 0-0.45863-0.59642-1.4774-1.3254-2.264-0.90934-0.98119-1.444-2.3792-1.7031-4.4536-0.30783-2.4637-0.56852-3.0234-1.4082-3.0234-0.56674 0-1.5225-0.49205-2.1239-1.0934-1.4966-1.4966-4.126-1.3991-6.0557 0.22462-9.2949 7.8212-31.544-4.2928-47.607-25.92-0.78163-1.0524-2.5775-3.1436-3.9909-4.6471-3.1671-3.369-5.7657-6.8359-5.7657-7.6922 0-0.78821-2.2017-5.8705-2.7072-6.249-1.6166-1.262-6.269-20.801-4.9123-20.801 0.70179 0 1.0934 0.36447 1.0934 1.0176 0 5.4082 8.5989 9.8138 17.862 9.1517 6.6569-0.47584 5.5265-0.46948 11.66-0.0655 11.232 0.73972 23.571 3.2585 29.179 5.9567 2.1434 1.0311 5.2502 2.4792 6.904 3.218 4.9215 2.1985 9.4325 5.896 11.527 9.4484 1.027 1.7416 2.3919 4.0477 3.0333 5.1248 0.64136 1.0771 1.4584 3.373 1.8156 5.1019 0.71533 3.4623 1.0035 3.6885 2.5374 1.9911 4.7212-5.2245 13.753-4.3702 15.21 1.4389 0.38529 1.5351 1.4893 1.7585 2.5248 0.51083 0.57882-0.69743 0.51069-1.0985-0.39472-2.3235-4.3929-5.9437-7.1137-15.126-5.828-19.669 0.31758-1.1221 0.67474-2.4035 0.7937-2.8474 0.13516-0.50436-0.24511-0.87749-1.0138-0.99477-2.0676-0.31546-1.1197-2.8452 1.0661-2.8452 0.54125 0 0.98409-0.25857 0.98409-0.57461 0-0.97206 5.7171-3.0722 9.5675-3.5146 0.90208-0.10363 3.7313-0.68235 6.2872-1.286 4.8843-1.1536 6.4487-1.3557 17.495-2.2598 9.1916-0.75231 11.974-1.1293 12.306-1.6678 0.15395-0.2491 1.9379-0.97741 3.9643-1.6185 2.0264-0.64107 4.1215-1.4045 4.6557-1.6964 2.0278-1.1083 6.834-2.8396 10.758-3.8751 2.2413-0.59153 5.4396-1.7271 7.1073-2.5235 2.598-1.2407 3.854-1.4666 8.7726-1.5782 3.1573-0.0716 6.7246-0.26429 7.9274-0.42818 2.3219-0.31637 10.327 0.39009 31.138 2.7479 1.4898 0.16879 2.8986 0.42422 3.1306 0.56762 0.23203 0.1434 2.0884 0.35489 4.1252 0.46998s6.5395 0.37106 10.006 0.56884c10.774 0.61471 21.512 0.67426 23.095 0.12807 0.94708-0.32685 1.7667-0.33013 2.1868-0.009 0.41958 0.32098 2.8281 0.32013 6.4125-0.002 8.9963-0.80917 22.231-0.80161 23.045 0.0132 0.37538 0.37586 1.3594 0.68339 2.1866 0.68339 2.5807 0 7.2551 1.4593 9.5106 2.9692 3.6178 2.4218 9.9341 8.4594 10.645 10.175 0.87056 2.1017 2.3215 2.1811 2.0798 0.11375l-0.17581-1.5034 4.3737 0.20085c4.0856 0.18763 16.514 3.8633 18.544 5.4841 0.32529 0.25983 3.972 2.2349 8.1039 4.389 4.1318 2.1541 9.2983 5.0062 11.481 6.3381s5.6907 3.4312 7.7956 4.665c2.1048 1.2339 5.6722 3.4514 7.9274 4.9277s5.2074 3.2466 6.5606 3.9339c3.5662 1.8115 21.307 13.575 23.826 15.799 1.1785 1.0403 3.916 3.0438 6.0833 4.4523 2.1672 1.4085 4.7505 3.2473 5.7405 4.0863 0.98999 0.83897 2.8456 2.1972 4.1235 3.0184 1.278 0.82112 2.3235 1.6744 2.3235 1.8962 0 0.22179 1.0981 0.98574 2.4401 1.6977 1.3421 0.71197 2.8205 1.875 3.2854 2.5846 0.46493 0.70955 1.5636 1.6615 2.4416 2.1155 0.87795 0.454 1.7384 1.2733 1.9121 1.8207 0.17385 0.54737 0.93127 1.2266 1.6834 1.5095 0.75214 0.28283 3.0721 1.9694 5.1553 3.7478 3.6389 3.1064 24.052 13.441 26.549 13.441 0.9581 0 11.497 5.6282 13.118 7.0057 1.6407 1.394 6.8339 7.5601 6.8339 8.114 0 0.26577 1.0782 1.9247 2.396 3.6865s2.6469 4.0942 2.9536 5.183c1.5597 5.5374 2.8512 11.653 2.8512 13.503 0 1.1412 0.34953 3.5667 0.77688 5.3901 2.427 10.357 3.6451 16.034 3.5361 16.479-0.1713 0.69985 0.5391 4.2174 1.7026 8.4312 0.53964 1.9545 1.2654 5.0298 1.6127 6.8339 0.34735 1.8042 0.89129 4.0184 1.2088 4.9204 0.31746 0.90208 0.77673 2.8702 1.0205 4.3737 0.84934 5.2381 3.753 15.345 6.9899 24.329 0.59585 1.6538 1.4385 5.0474 1.8725 7.5414l0.78913 4.5344-1.5958 1.3428c-2.849 2.3973-3.8281 1.6139-4.4716-3.5777-0.40665-3.2805-0.95428-5.3065-2.6308-9.7322-0.60383-1.5941-1.2867-3.6853-1.5175-4.6471-0.23071-0.96181-1.0543-3.8986-1.83-6.5261-0.77571-2.6275-1.7846-6.8099-2.242-9.2942-1.1538-6.267-4.136-21.61-4.6503-23.925-0.23363-1.0524-0.83932-3.7587-1.3456-6.0139-1.1608-5.1704-1.7224-8.0307-2.5226-12.848-1.6712-10.06-2.4205-12.988-4.6874-18.315-1.3435-3.1573-2.6184-5.9865-2.833-6.2872-0.96604-1.3534-6.1264-5.1719-7.4323-5.4996-0.79565-0.1997-2.3659-1.3928-3.4895-2.6515-1.1236-1.2586-3.396-2.9758-5.0498-3.816-1.6538-0.84018-3.2539-1.8383-3.5558-2.218-0.30179-0.37975-1.0811-0.8594-1.7317-1.0659-0.65059-0.20651-1.8299-0.88433-2.6206-1.5063-0.79073-0.62197-2.4717-1.6776-3.7354-2.3458-1.2638-0.66822-3.4792-1.8995-4.9231-2.7363-2.9868-1.7308-3.9115-1.4941-2.0217 0.51748 2.6122 2.7806-1.4157 1.4244-4.9204-1.6567-0.75173-0.66087-2.9659-2.1231-4.9204-3.2494s-5.5218-3.6845-7.9274-5.6848c-5.8357-4.8528-7.929-6.4458-12.304-9.3642-2.0286-1.3531-5.0105-3.6093-6.6264-5.0138-5.8769-5.1079-9.0005-7.603-11.355-9.0701-1.3216-0.8236-3.4966-2.4264-4.8335-3.5619-1.3368-1.1354-3.3761-2.5468-4.5316-3.1363-1.1556-0.58952-2.4248-1.533-2.8205-2.0967-0.39572-0.56368-2.1956-1.8065-3.9998-2.7618-1.8042-0.95532-4.3553-2.5016-5.6692-3.4362-1.3139-0.93461-3.3332-2.2168-4.4872-2.8494-1.1541-0.63253-7.8287-4.9828-14.833-9.6673-18.237-12.198-27.732-17.192-34.603-18.202-1.2028-0.17677-2.8019-0.45514-3.5536-0.61858-5.5991-1.2174 1.1773 6.8641 13.636 16.262 5.5655 4.1982 33.717 33.425 41.951 43.553 8.0454 9.8962 17.221 19.12 20.601 20.709 0.64461 0.30313 3.2632 1.616 5.8191 2.9174 3.1336 1.5956 5.6124 2.4599 7.611 2.6538 3.6391 0.35307 4.0761 1.2344 1.1855 2.391-2.3084 0.92367-3.725 0.67243-7.9764-1.4147-0.90208-0.44285-2.473-1.2172-3.491-1.7208-2.4559-1.2149-2.8019-0.69778-0.87722 1.3111 4.2431 4.4288-2.4912 0.0492-10.505-6.8321-11.963-10.272-20.84-19.382-27.308-28.025-3.2612-4.3578-7.1868-9.3305-8.7235-11.051-1.5367-1.72-3.0128-3.4982-3.2803-3.9513-0.26746-0.45318-1.6251-1.6857-3.0171-2.7388-1.392-1.0532-4.3442-3.694-6.5606-5.8685s-5.7591-5.1346-7.8727-6.5782c-2.1136-1.4435-4.2048-3.0638-4.6471-3.6006-0.44226-0.53681-1.7811-1.6858-2.9753-2.5532-1.1941-0.86746-6.6066-5.5936-12.028-10.503-21.8-19.692-20.23-18.636-27.44-18.471-3.0064 0.0688-6.5973 0.55744-9.0098 1.226-4.5521 1.2615-8.1727 1.3965-12.757 0.47573-2.5389-0.50987-3.3954-0.4926-4.3238 0.0872-0.83691 0.52266-4.3955 0.77822-12.84 0.92211-6.8315 0.1164-12.135 0.44136-12.773 0.7826-1.5128 0.80965-12.286-0.30867-21.751-2.2579-7.067-1.4553-28.505-3.197-32.256-2.6206-1.3531 0.20789-4.3054 0.64474-6.5606 0.97079-2.2552 0.32604-6.1916 1.3408-8.7474 2.2551-2.5559 0.91426-5.7542 1.9864-7.1073 2.3827-1.3531 0.3962-3.6903 1.2599-5.1938 1.9192-1.5035 0.65939-3.2256 1.2087-3.827 1.2206-1.544 0.0307-4.1004 1.0288-4.1004 1.6009 0 0.26422 0.1845 0.41889 0.41004 0.34371 2.4451-0.81504-0.11824 1.4956-3.7036 3.3385-7.9926 4.1082-15.432 5.7651-28.416 6.3287-7.477 0.32454-10.938 1.3634-10.91 3.2751 0.11663 8.1754 16.882 23.517 29.051 26.584 7.4847 1.886 37.04 2.9101 40.423 1.4006 0.61308-0.27357 0.96777-0.078 1.1547 0.6368 0.2278 0.87104 0.73891 1.0152 3.2829 0.92606 4.5256-0.15858 4.5788-0.40748 1.0246-4.7904-4.8156-5.9385-7.4749-11.03-6.6763-12.783 0.69515-1.5257 1.8852-1.072 2.5317 0.96519 0.53708 1.6922 1.4489 1.1935 1.2556-0.68678-0.28174-2.7413 0.9775-2.4202 1.6958 0.4324 1.1591 4.6032 11.407 13.956 19.722 17.999 6.6926 3.2544 21.093 7.5261 30.343 9.0006 1.8042 0.28761 4.6052 0.8908 6.2244 1.3404 1.6193 0.44962 3.8335 0.92638 4.9204 1.0595 2.5092 0.30722 10.964 2.4817 12.227 3.1448 1.2995 0.68207 1.2752-0.61386-0.0436-2.3328-1.6633-2.1679-1.846-3.1785-2.0641-11.418-0.32589-12.315 1.4581-14.968 2.8088-4.178 0.33121 2.646 0.60535 3.0846 1.928 3.0846 0.58364 0 1.0612 0.24602 1.0612 0.54671 0 2.184 1.1058-0.19685 1.5869-3.417 1.2477-8.3499 1.811-10.593 3.1899-12.704 1.6322-2.4984 2.3203-1.8085 0.91012 0.91257-3.9087 7.5423-2.0992 29.539 2.3653 28.753 0.85529-0.15057 5.6156 7.1132 5.6156 8.5689 0 0.3841 0.67656 1.5813 1.5035 2.6605 2.7542 3.5944 4.4693 6.0847 6.5494 9.5098 1.1337 1.8668 3.23 4.6386 4.6582 6.1597 1.4283 1.521 2.5969 2.968 2.5969 3.2154 0 0.24741 0.56813 0.70867 1.2625 1.025 0.75054 0.34199 1.5342 1.4306 1.9326 2.6847 2.0877 6.5721 13.731 11.56 13.758 5.8934 0.006-1.2285 4.6228-12.731 5.4368-13.545 1.131-1.131 1.047 0.0845-0.27606 3.9951-2.3281 6.8812-1.839 14.516 1.0854 16.944 0.53844 0.44686 0.85612 1.5986 0.85612 3.1038 0 3.9088 1.3584 2.9125 4.429-3.2486 2.0662-4.1458 3.409-5.8391 4.6302-5.8391 2.7332 0-0.61328 13.108-4.2025 16.461-1.6768 1.5664-1.6956 1.6363-0.72869 2.7048 0.91019 1.0058 0.91993 1.1695 0.11726 1.9722-1.3656 1.3656-4.3672-0.76089-6.1466-4.3547-2.801-5.6572-7.1709-10.103-10.782-10.969-2.2145-0.53107-9.1767-6.3302-16.84-14.027-7.313-7.3449-9.4928-10.208-14.427-18.951-3.8261-6.779-3.487-6.5062-8.6394-6.9541-2.3126-0.20107-5.3879-0.71454-6.8339-1.141-1.4461-0.42651-5.9505-1.0493-10.01-1.384-9.3275-0.76897-13.927-1.7076-21.539-4.3954-9.3816-3.3127-11.823-2.7635-5.2864 1.1891 1.9066 1.1529 3.7781 2.5332 4.1589 3.0674 0.3808 0.53424 1.8426 2.1646 3.2485 3.6229l2.5562 2.6516 1.2771-1.1997c0.93077-0.87442 1.6232-1.0942 2.5537-0.81065 2.4064 0.73344 18.923 9.0231 19.598 9.8361 0.3708 0.44678 1.116 0.81232 1.656 0.81232 2.8769 0 4.2852 1.9745 3.0294 4.2474-0.45375 0.8212-1.1761 2.8462-1.6053 4.5-0.42916 1.6538-1.3332 4.4656-2.0089 6.2484l-1.2286 3.2414 1.1091 0.85893c0.61 0.47242 1.8126 1.2826 2.6724 1.8004 0.85983 0.51778 2.9165 1.9432 4.5703 3.1677s3.991 2.8684 5.1938 3.6532c1.2028 0.78483 4.032 3.194 6.2872 5.3538 5.1125 4.8962 10.276 7.5985 16.869 8.8288 5.1612 0.96302 5.1804 0.96555 14.267 1.8748 9.6575 0.96643 21.56 5.6284 23.122 9.0566 0.67171 1.4742 4.6072 3.897 9.1612 5.6399 1.6538 0.63292 3.499 1.3602 4.1004 1.6162 0.60138 0.25601 3.0616 1.0146 5.4671 1.6858 2.4056 0.67118 4.9443 1.4415 5.6417 1.7119 1.3593 0.52695 4.1591-1.3569 7.3662-4.9563 0.86386-0.96954 2.0292-1.6705 2.7773-1.6705 0.70886 0 1.8997-0.48049 2.6463-1.0678 1.778-1.3986 4.6466-0.60624 6.9434 1.9178 0.88274 0.97006 2.0789 2.0982 2.6582 2.507 2.5216 1.7795 3.5642 6.4766 2.2649 10.204-1.1116 3.1888 3.018 6.5654 8.3256 6.8074 4.505 0.20538 2.8422 3.2245-2.6042 4.7284-1.0079 0.27828-2.5087 1.0379-3.3352 1.688l-1.5026 1.182-1.1801-1.48c-1.1166-1.4004-1.1988-1.4212-1.5268-0.38756-0.55209 1.7395-2.4129 3.1882-3.1493 2.4519-0.45921-0.45921-0.38574-1.2253 0.28626-2.985 1.5156-3.9685 0.97958-4.2078-2.1688-0.96835-2.9247 3.0094-3.09 4.0648-1.1991 7.6585 1.8524 3.5205 2.5478 4.4328 3.9988 5.2455 0.58762 0.32915 1.2081 1.1902 1.3788 1.9135 0.2981 1.2627 0.58332 1.3632 3.2159 1.1328 0.99561-0.0871 3.4034-3.6835 5.5516-8.2918 1.5714-3.3711 4.8768-8.1681 6.2468-9.0657 1.0852-0.71101 1.2679-1.1735 0.99775-2.5244l-0.33094-1.6539 2.6776 0.35285c1.4726 0.19408 3.9573 0.48984 5.5216 0.65726 1.5642 0.1674 3.132 0.65133 3.4839 1.0754 0.35208 0.42405 1.0402 0.77984 1.5297 0.79065 1.2726 0.0281 3.5346 2.0808 5.1352 4.6599 1.0237 1.6495 1.9454 2.3896 3.5901 2.8823 1.2962 0.38836 2.3483 1.09 2.54 1.6939 0.18005 0.56703 1.4864 1.5683 2.9033 2.225 2.6372 1.2224 5.9404 3.1671 10.777 6.3448 1.7983 1.1815 3.9494 2.0073 6.2872 2.4134 5.0569 0.8786 11.773 4.0262 15.035 7.046 1.5035 1.3921 3.7177 2.9222 4.9204 3.4002 5.021 1.9957 10.124 3.5796 14.488 4.4966 3.0643 0.64395 3.9203 1.081 9.4041 4.8009 2.4108 1.6354 3.6441 2.1144 5.4441 2.1144 1.9482 0 2.6664 0.33128 4.4103 2.0341 1.8314 1.7883 2.4288 2.0433 4.9435 2.1099 2.7329 0.0724 7.2623 1.3924 12.306 3.5863 1.286 0.55939 2.6888 1.0171 3.1173 1.0171 0.81981 0 15.276 7.305 16.687 8.4319 1.5399 1.2305 6.6592 3.5959 7.7823 3.5959 2.6177 0 23.679 9.553 26.368 11.96 1.8322 1.6398 5.925 3.3294 9.9238 4.0967 2.9393 0.56402 4.5802 1.2948 7.4944 3.3376 3.5751 2.5061 13.241 6.9396 17.369 7.9662 2.6177 0.65112 14.148 5.8516 15.53 7.0044 2.0347 1.6974 4.7188 2.9202 5.7935 2.6391 0.63255-0.16543 1.6774 0.21745 2.5583 0.93739 0.81901 0.66936 2.7192 1.6617 4.2226 2.2053 1.5035 0.54355 3.8102 1.5737 5.126 2.2892 1.3158 0.71553 2.8233 1.301 3.35 1.301s1.2402 0.34042 1.5855 0.7565c0.57558 0.69353 7.1892 3.5182 10.44 4.4591 0.75174 0.21755 3.212 1.3167 5.4672 2.4426 5.5466 2.769 11.681 5.2169 15.255 6.0869 1.9715 0.47997 3.0384 1.0414 3.2074 1.6878 0.15636 0.59839 0.7713 0.96859 1.6086 0.96859 0.74542 0 2.0083 0.35001 2.8065 0.7778 0.79813 0.42779 2.6812 1.3019 4.1847 1.9424 1.5035 0.64052 3.3486 1.513 4.1004 1.939 0.75174 0.4259 1.9818 1.0475 2.7336 1.3814 0.75173 0.33386 2.6008 1.2025 4.109 1.9303 1.5083 0.72783 3.1544 1.3233 3.6581 1.3233 0.50374 0 1.0679 0.24603 1.2537 0.54672 0.18589 0.30069 0.72374 0.54671 1.1953 0.54671 1.1432 0 7.459 3.1238 10.68 5.2823 1.4196 0.95134 3.4493 2.0162 4.5104 2.3664 1.0612 0.35019 1.9294 0.83338 1.9294 1.0737 0 0.57854 5.377 2.8788 5.9302 2.5369 0.56596-0.34979 5.0486 1.2014 6.0975 2.1101 0.45104 0.3907 2.0412 1.2421 3.5337 1.892 1.4925 0.64992 3.0916 1.5146 3.5536 1.9214 0.46201 0.40685 2.8082 1.5274 5.2137 2.49 2.4055 0.96268 5.5357 2.3543 6.9558 3.0925 1.4202 0.73818 4.0004 1.7116 5.7338 2.1631 1.7334 0.45151 3.3361 1.1504 3.5614 1.5531 0.22525 0.40267 1.0895 0.90177 1.9202 1.1091 0.83079 0.20735 1.8795 0.6842 2.3305 1.0597 0.45104 0.37552 4.1414 2.1042 8.2007 3.8416 4.0594 1.7374 8.3272 3.7676 9.4843 4.5115 1.157 0.74396 3.0723 1.6945 4.2564 2.1122 1.1841 0.41777 2.6909 1.1364 3.3485 1.597 0.65766 0.46062 1.7259 0.83748 2.3739 0.83748 0.64797 0 1.49 0.37567 1.871 0.83482 1.0491 1.2642 10.677 5.7258 12.356 5.7258 0.86177 0 2.6296 0.87311 4.2596 2.1038 1.5326 1.1571 3.6461 2.548 4.6968 3.0908 2.8044 1.449 4.9172 3.6433 4.9172 5.1068 0 0.70632 0.40708 1.9733 0.90459 2.8155 0.76876 1.3014 0.81833 2.0529 0.33022 5.0048-0.316 1.9104-0.38186 3.6793-0.14652 3.9308 0.23545 0.25149 0.0988 1.7059-0.30397 3.2318-0.63507 2.4073-1.0753 3.1008-2.4245 3.8192-0.15017 0.0802-0.97841 1.0891-1.8401 2.2423-3.8236 5.1169-9.1758 4.802-21.942-1.2909-1.2028-0.57405-4.278-1.8101-6.8339-2.7468-2.5559-0.93671-6.9118-2.5363-9.6797-3.5547-2.768-1.0184-7.1964-2.9492-9.8409-4.2907-7.3287-3.7177-8.9439-4.453-12.01-5.4666-1.5555-0.51428-3.1233-1.2906-3.4839-1.7251-0.36083-0.43457-0.88006-0.79012-1.1542-0.79012-0.27408 0-3.3808-1.2534-6.9036-2.7853-3.5229-1.5319-8.3734-3.4646-10.779-4.2948-2.4056-0.83022-5.3306-2.16-6.5002-2.9552-1.1694-0.79509-2.4854-1.4456-2.9242-1.4456-0.43879 0-1.573-0.34716-2.5206-0.77146-0.94753-0.42431-3.4449-1.4317-5.5498-2.2386-2.1049-0.80691-4.319-1.7734-4.9204-2.1477-0.60138-0.3743-1.919-0.84212-2.9281-1.0396-1.009-0.19747-5.4374-2.1135-9.8409-4.2578-9.2894-4.5236-16.271-7.5864-17.294-7.5864-0.39418 0-1.9963-0.86107-3.5601-1.9135-1.5639-1.0524-3.035-1.9135-3.2691-1.9135-0.23436 0-1.8701-0.63414-3.6354-1.4092-1.7653-0.77507-4.9318-2.1561-7.0366-3.069-2.1049-0.91287-4.8111-2.0994-6.0139-2.6368-1.2028-0.53738-3.1709-1.2747-4.3737-1.6385-1.2028-0.36382-3.171-1.113-4.3737-1.6649-1.2028-0.55187-5.1391-2.2807-8.7474-3.8419s-10.005-4.5614-14.215-6.6672c-6.8263-3.4147-10.882-4.9251-14.967-5.574-0.71441-0.1135-1.5632-0.47064-1.8862-0.79367-0.32303-0.32302-0.97814-0.5873-1.4558-0.5873-0.47768 0-1.8336-0.49205-3.0132-1.0934-1.1796-0.60139-2.3647-1.0934-2.6336-1.0934-0.26898 0-1.2199-0.61513-2.1134-1.367-0.89348-0.75182-2.2821-1.5174-3.0859-1.7014-8.1427-1.8633-13.939-4.1323-17.109-6.6973-1.8324-1.4826-4.1047-2.8488-5.0496-3.036-0.94483-0.18715-2.702-1.0387-3.9048-1.8923-1.2028-0.85359-3.54-1.8564-5.1938-2.2284-6.2546-1.407-10.829-3.0444-12.301-4.4028-0.60139-0.55505-1.7955-1.1835-2.6536-1.3966l-1.5601-0.38737 1.6968 2.3424c1.0066 1.3896 1.6968 3.0142 1.6968 3.9941 0 0.90846 0.34297 2.0402 0.76226 2.5149 0.955 1.0814 5.0308 10.654 5.7485 13.501 0.29413 1.1676 0.80921 3.2264 1.1442 4.5751 0.33495 1.3487 0.94673 2.8252 1.3594 3.2813 1.4387 1.5897 4.1068 10.622 4.1068 13.902 0 1.0383 0.38536 3.6876 0.85634 5.8872 0.47101 2.1997 1.0724 5.8446 1.3364 8.0998 1.0387 8.8726 1.6086 11.291 3.6196 15.356 1.5539 3.1418 2.5352 4.4268 4.0427 5.2944 1.0948 0.63013 3.0705 2.4661 4.3903 4.08s3.3225 3.5914 4.4505 4.3944c1.128 0.80308 2.207 2.0821 2.3978 2.8423 0.19062 0.76016 0.53031 1.3821 0.75454 1.3821 0.78315 0 16.96 16.687 21.995 22.689 1.7658 2.1048 3.8175 4.4879 4.5592 5.2956 0.74167 0.80775 1.3485 1.708 1.3485 2.0006 0 0.29268 1.4146 2.2682 3.1436 4.3902s4.1277 5.1128 5.3305 6.6462c8.5471 10.897 12.889 15.738 16.901 18.844 1.1652 0.90208 3.2516 2.8498 4.6365 4.3283s4.8132 4.9228 7.6182 7.654c4.5192 4.4002 11.206 11.11 31.832 31.942 3.1734 3.205 6.6455 6.9343 7.716 8.2874 1.8941 2.3942 6.4057 7.5528 11.025 12.606 1.2529 1.3706 3.3904 3.7078 4.7499 5.1938 6.957 7.6043 8.4413 11.75 3.0423 8.4978-0.92792-0.55896-2.5902-1.3048-3.6938-1.6574-1.1115-0.355-2.6142-1.4376-3.3685-2.4264-3.1887-4.1806-17.127-17.662-17.684-17.105-0.19937 0.19936 0.17131 0.93101 0.82412 1.6258 0.65267 0.69477 1.1867 1.5549 1.1867 1.9114 0 0.76555-1.4668 0.87985-1.7313 0.13486-0.2289-0.64502-13.826-15.575-18.224-20.01-1.8042-1.8196-6.7246-6.984-10.934-11.477-4.2097-4.4925-9.0071-9.5562-10.661-11.253-9.3616-9.603-10.903-11.365-11.901-13.605-0.65103-1.4618-3.5615-5.0654-7.172-8.8798-3.342-3.5307-6.0764-6.6661-6.0764-6.9674 0-0.30142-1.0456-1.621-2.3235-2.9327-2.7676-2.8406-4.0006-4.3856-7.2647-9.1025-1.3525-1.9545-3.9923-5.557-5.8662-8.0056s-4.1952-5.5238-5.1582-6.8339c-4.2982-5.847-6.6545-8.4069-9.4566-10.274-1.6538-1.1019-4.8268-3.7134-7.0512-5.8032-6.7995-6.3882-7.2869-6.7948-7.7799-6.4901-0.26242 0.16219-0.47695 0.64928-0.47695 1.0826 0 1.496-0.97392 0.77127-5.0022-3.7226-7.37-8.2217-10.66-13.878-10.064-17.305 0.1877-1.0816 0.44295-2.891 0.56698-4.0208 0.12392-1.1298 0.34771-2.2518 0.49693-2.4933 0.26898-0.43528-0.86254-6.3905-4.0184-21.148-2.0251-9.4698-3.3026-14.091-6.1209-22.142-4.7322-13.518-5.9273-17.669-5.9273-20.588 0-1.6066-0.18442-2.937-0.41003-2.9564-9.1818-0.79076-14.876-2.9022-19.901-7.3802-1.4144-1.2602-2.9288-1.962-5.1938-2.4071-4.7138-0.92624-8.2678-2.4765-11.878-5.1813-2.4109-1.8061-3.9134-2.5039-6.0139-2.7928-4.0739-0.56026-10.957-3.3466-13.485-5.4591-1.5377-1.2847-2.9607-1.929-4.7735-2.1611-6.4275-0.82306-16.632-5.558-18.503-8.5855-0.7646-1.2372-4.9648-2.6039-8.0378-2.6155-3.6557-0.0138-6.7164-1.5009-9.5912-4.6601-1.1481-1.2617-2.2474-1.9225-3.2305-1.942-8.4028-0.16621-14.34-2.1234-18.668-6.1538-3.4727-3.2337-5.3105-3.9083-8.6793-3.1858-3.864 0.82869-5.936 0.0578-10.1-3.7576-4.0306-3.6933-3.994-3.6751-4.3846-2.1813-0.19098 0.72975-0.74572 1.0934-1.6683 1.0934-0.76033 0-2.0613 0.25812-2.8911 0.57361-3.4846 1.3248-10.701-3.1798-11.501-7.179-0.24565-1.228-0.61957-1.5954-1.6241-1.5954-0.85678 0-2.3976-1.0824-4.4857-3.1511-2.8981-2.8713-7.1037-5.0496-9.749-5.0496-0.87423 0-5.6455 3.9087-5.6455 4.6249 0 4.5348-10.205 5.0451-13.086 0.65432-0.7774-1.1847-1.9149-2.15-2.7336-2.3199-2.5196-0.52274-2.867-1.0076-4.0855-5.7018-0.66218-2.551-1.5907-5.2533-2.0633-6.005-0.47265-0.75173-1.2887-3.0035-1.8134-5.0038l-0.95404-3.637-4.6907-3.1969c-6.5164-4.4411-10.553-6.0151-21.6-8.4232-2.6561-0.57898-5.1163-1.2312-5.4672-1.4494-0.35081-0.21821-2.483-0.40457-4.7382-0.41415-3.6902-0.0157-4.4008-0.20284-7.1034-1.8709-2.3164-1.4297-4.0951-2.0166-7.7799-2.567-2.6273-0.39248-7.5791-1.3421-11.004-2.1102-3.4249-0.76815-6.7401-1.3966-7.367-1.3966-2.0895 0-11.256-2.8655-14.857-4.644-1.9545-0.96556-4.7838-2.1839-6.2872-2.7074-1.5035-0.52353-3.4106-1.312-4.2382-1.7522-0.82752-0.44018-1.7067-0.67541-1.9537-0.52274-0.55289 0.34171-10.045-1.1231-12.67-1.9553-3.4123-1.0817-11.497-5.9639-14.892-8.9935-1.8211-1.6249-3.4384-2.8271-3.594-2.6715-0.9561 0.9561-0.45715 3.3659 1.053 5.0859 0.90636 1.0323 2.2761 3.2036 3.0438 4.825 0.76774 1.6215 1.6139 2.9481 1.8804 2.9481 0.26647 0 2.0296 1.5376 3.918 3.417 8.7449 8.7029 14.099 13.401 17.092 14.998 1.789 0.95428 4.5169 2.6754 6.0621 3.8246 3.9576 2.9436 10.754 8.4152 11.405 9.1819 1.1966 1.4092 3.4696 2.393 7.3806 3.1946 6.8483 1.4037 8.2007 1.5596 8.2007 0.94544 0-0.31432-0.38708-0.57149-0.86016-0.57149-0.52503 0-0.78825-0.37276-0.6756-0.95675 0.19762-1.0244 3.9438-1.4132 8.233-0.85438 2.8479 0.37102 2.7935 1.8111-0.0683 1.8111-2.6695 0-5.5355 0.55997-5.5355 1.0816 0 0.4493 5.4641 0.97871 14.761 1.4302 3.458 0.16792 7.5793 0.52428 9.1584 0.7919 2.2003 0.37288 4.0527 0.243 7.9274-0.55582 2.7809-0.57331 6.2453-1.0366 7.6986-1.0295 1.4534 0.007 2.7838-0.12848 2.9566-0.30127 0.51485-0.51486 1.7816 0.82661 1.7816 1.8867 0 0.67529-0.55625 1.0888-1.7768 1.3209-2.2525 0.42835-4.9527 1.0379-10.798 2.4375-2.5559 0.61202-6.1232 1.2571-7.9274 1.4336-6.7941 0.66444-7.2023 1.1366-2.8702 3.3203 1.5786 0.79577 3.7585 2.2444 4.8442 3.2192 1.2547 1.1266 3.6451 2.3235 6.5606 3.285 6.9394 2.2885 13.607 6.7294 13.607 9.0626 0 1.1139-1.1504 0.88627-3.2661-0.64636-3.1713-2.2973-5.7028-3.3449-18.329-7.5851-6.0139-2.0196-12.41-4.1797-14.215-4.8002-1.8042-0.62052-5.7345-1.8169-8.7341-2.6587-4.132-1.1596-5.9428-1.9723-7.4714-3.3533-3.9184-3.54-3.4323 0.76773 0.66238 5.8698 1.4886 1.8548 2.5664 3.5989 2.3952 3.8758-1.6741 2.7088-7.9007-6.2108-7.9007-11.318 0-1.7954-0.90289-2.0758-2.5392-0.78863-0.78939 0.62092-1.7329 1.129-2.0968 1.129-0.94324 0-17.293-12.402-24.143-18.315-2.0905-1.8042-6.7032-5.7357-10.251-8.7367-3.5473-3.0011-6.8294-6.1993-7.2936-7.1073-0.46413-0.90796-1.5558-2.5568-2.4259-3.6642-1.8303-2.3294-5.9786-9.4407-7.5957-13.021-0.87814-1.9444-1.8489-2.9188-4.6297-4.6471-3.6518-2.2696-4.2665-2.9894-3.7353-4.3737 0.39677-1.034 1.4654-1.0408 3.4358-0.0219 2.9593 1.5303 0.86461-7.9592-2.171-9.8354-0.3266-0.20184-1.9271-2.1698-3.5566-4.3732s-3.4195-4.1512-3.9778-4.3284c-0.55832-0.1772-1.815-1.436-2.7927-2.7974-2.9368-4.0894-7.6864-8.9341-12.048-12.289-2.263-1.7408-5.4677-4.5654-7.1216-6.2771-9.3596-9.6868-25.683-16.135-37.723-14.903-5.5893 0.57213-5.8352 0.70928-4.0404 2.2532 1.2572 1.0814 1.7328 1.1981 2.9742 0.72951 2.1868-0.82542 4.312 0.28422 8.2955 4.3312 1.8874 1.9175 3.7276 3.4895 4.0894 3.4934 1.1896 0.0128 6.1196 5.0122 7.2545 7.3566 0.61165 1.2635 1.7472 2.8495 2.5234 3.5244 4.9817 4.3315 7.6524 20.435 3.6784 22.18-0.78799 0.34593-1.4011 1.3468-1.8032 2.9437-0.76637 3.0436-2.1577 5.7749-4.3292 8.4984-0.95377 1.1963-1.6945 2.7721-1.6945 3.6047 0 0.81366-0.48568 2.8911-1.0793 4.6164-0.59361 1.7254-1.1273 4.0396-1.1859 5.1427-0.13078 2.4594-1.3947 5.1595-2.2772 4.8648-0.37817-0.12629-0.57551-0.95498-0.47055-1.9759 0.0994-0.96711-0.0889-2.0833-0.41851-2.4805-1.2823-1.5451 1.0988-9.1155 6.1461-19.541 6.0557-12.508 6.1118-13.483 0.67009-11.652-2.8239 0.95034-4.3531 1.9157-6.8814 4.3443l-3.2507 3.1224v3.4373c0 1.8905 0.36903 4.3205 0.82007 5.4 1.0242 2.4512 1.0309 3.0913 0.0321 3.0913-1.2513 0-1.5682-0.97096-2.3143-7.0911l-0.70164-5.7567 1.7653-2.5977c2.4712-3.6364 6.9381-6.6077 10.468-6.9633 4.0452-0.40748 2.1035-8.2865-3.2782-13.303-1.9596-1.8265-6.2325-8.1775-6.2391-9.2735-0.003-0.5359-0.43644-1.151-0.96265-1.3668-0.52621-0.21585-2.363-1.3443-4.0818-2.5077-14.785-10.007-28.48 8.447-16.996 22.902 1.1995 1.5098 2.4683 3.2821 2.8196 3.9385 0.35128 0.65634 2.0068 3.1114 3.6789 5.4556s4.0683 5.709 5.3247 7.4773c1.2565 1.7683 3.3301 4.5194 4.608 6.1137s2.3235 3.1428 2.3235 3.4411c0 0.29836 0.98305 1.4836 2.1846 2.6338 2.1329 2.0418 2.1695 2.1398 1.5484 4.1415-0.7103 2.2892-1.4942 2.5876-2.5127 0.95675-2.5627-4.1036-1.9391 0.50301 0.67094 4.9564 0.99858 1.7038 1.9913 3.6843 2.206 4.4012 0.21471 0.71683 0.73625 1.852 1.159 2.5226 1.0827 1.7175 3.3484 9.1924 3.7732 12.449 0.79491 6.0929 1.2232 6.067 5.4585-0.33 6.8207-10.302 6.632-6.5988-0.45699 8.9661-1.3924 3.0573-1.5743 3.8807-1.0264 4.6471 0.36624 0.51227 0.88769 1.4234 1.1588 2.0248 3.6161 8.0224 6.626 11.74 22.098 27.294 3.2673 3.2845 6.8682 7.2209 8.0019 8.7474 1.1337 1.5266 2.6189 3.2676 3.3005 3.869 1.7756 1.5666 5.0219 6.0526 7.1295 9.8518 0.99748 1.7981 2.8152 4.4062 4.0393 5.7958 3.146 3.5711 6.7949 8.8412 7.4777 10.8 0.31896 0.91498 0.98991 1.8019 1.491 1.971 0.97274 0.32822 4.0534 5.1219 4.75 7.3913 0.23075 0.75174 1.122 2.7503 1.9806 4.4414 0.85859 1.691 1.5611 3.4671 1.5611 3.9468 0 0.82815 1.3551 3.9388 3.0145 6.9198 0.41845 0.75173 1.4166 2.5969 2.2181 4.1004 2.9255 5.4875 6.2813 9.9889 9.6083 12.888 1.872 1.6315 4.6496 4.303 6.1724 5.9367 5.0554 5.4236 6.2023 6.4202 8.7868 7.6351 2.7119 1.2747 8.3161 6.6619 13.139 12.63 1.5794 1.9545 4.1273 4.7745 5.662 6.2667s2.7904 3.0351 2.7904 3.4287c0 0.39361 0.61505 0.9959 1.3668 1.3384 0.87531 0.39882 1.3668 1.0703 1.3668 1.8674 0 0.68457 0.61809 1.9367 1.3735 2.7825 3.5461 3.9703 7.5878 8.5894 12.213 13.958 2.7767 3.223 7.3137 7.7434 10.082 10.045 2.7684 2.3019 6.6697 5.8154 8.6694 7.8078 5.5478 5.5273 12.804 12.107 15.728 14.262 1.4442 1.0642 4.5667 3.3974 6.9389 5.1848 9.8219 7.4007 19.96 13.5 23.522 14.152 2.2676 0.41499 9.9889 3.4612 20.497 8.0866 4.6989 2.0683 8.9683 3.7605 9.4875 3.7605 8.0711 0 26.419 17.606 29.819 28.614 0.61025 1.9758 1.6721 4.2801 2.3597 5.1208 1.9426 2.3752 6.2664 9.0979 6.8663 10.676 0.29704 0.781 1.0306 1.5757 1.6303 1.7661 1.0912 0.34625 4.4394 4.8724 4.4394 6.0011 0 0.32949 1.0584 1.8249 2.3521 3.3233 1.2937 1.4983 2.8733 3.4622 3.5103 4.3643 0.63704 0.90208 2.4271 2.9933 3.978 4.6471 1.5508 1.6538 3.1561 3.622 3.5672 4.3737 0.41113 0.75174 3.8275 4.5651 7.5919 8.4741 8.2227 8.5384 6.6487 6.9432 12.897 13.071 2.8566 2.8015 6.7929 6.8975 8.7474 9.1022s5.32 5.8674 7.479 8.1393c2.1589 2.2719 4.1825 4.8073 4.4969 5.6342 0.35501 0.93343 0.97728 1.5035 1.6416 1.5035 0.58998 0 1.2258 0.49062 1.4172 1.0934 0.19099 0.60138 0.56465 1.0934 0.83064 1.0934 0.26607 0 1.2808 1.1686 2.2551 2.5969 0.97428 1.4283 2.2162 2.9184 2.7598 3.3113 0.54366 0.39294 0.98843 1.0432 0.98843 1.445 0 0.40179 0.38477 0.8782 0.85506 1.0587 0.50768 0.19463 0.78534 0.82394 0.68339 1.5485-0.11918 0.8466 0.14871 1.2839 0.87391 1.4277 1.3163 0.26096 7.5311 6.6358 7.2444 7.4309-0.34261 0.95005 1.1068 3.3588 2.6164 4.3479 1.3719 0.89883 1.9185 2.5288 0.84803 2.5288-1.0559 0-0.5321 2.9228 0.84807 4.7324 1.2243 1.6052 2.9789 5.0868 2.9789 5.911 0 1.1749-1.9846-0.22561-4.0428-2.8527zm308.25-181.03c0.16292-0.26388 1.4078-0.75935 2.7663-1.1014 5.7432-1.4462 8.7898-10.269 5.1251-14.842-3.096-3.8634-7.8462-7.4749-11.061-8.4094-1.6134-0.469-3.2295-1.2096-3.5915-1.6458-0.36192-0.43618-2.4239-1.4514-4.582-2.2561-2.158-0.80468-5.462-2.1724-7.3422-3.0395-1.8801-0.86702-3.7252-1.5776-4.1004-1.579-0.37501-0.002-1.6182-0.86251-2.7626-1.9135-1.1443-1.051-2.3764-1.9109-2.7379-1.9109-0.36157 0-1.8127-0.61505-3.2249-1.3668-1.4121-0.75173-3.1993-1.3668-3.9714-1.3668-1.4654 0-9.7877-3.9289-10.391-4.9058-0.19099-0.30879-0.88601-0.56267-1.5448-0.5642-0.65886-0.002-2.1819-0.60892-3.3847-1.3497-1.2028-0.74081-2.6481-1.3546-3.212-1.364-0.56377-0.01-2.4089-0.61051-4.1004-1.3358-1.6914-0.72532-4.9204-2.0674-7.1756-2.9824-4.2302-1.7163-14.001-6.7333-16.386-8.4143-0.74346-0.52384-1.8506-0.96084-2.4602-0.97112-1.0007-0.0168-3.6012-1.2483-18.057-8.5504-2.4055-1.2152-4.9888-2.3829-5.7405-2.595-1.6338-0.46094-2.5338-0.81505-6.8339-2.6888-1.8042-0.78614-5.5952-2.3136-8.4243-3.3943-2.8292-1.0807-7.0116-3.011-9.2942-4.2894-6.6226-3.7093-8.7396-4.7-9.7573-4.5665-2.1165 0.27784-6.6939-1.3163-6.6939-2.3312 0-1.1305-7.3863-5.462-9.314-5.462-1.5104 0-9.27-3.1069-10.468-4.1915-0.50812-0.45983-1.143-0.70063-1.4107-0.53512-1.1093 0.68558-10.835-3.092-19.316-7.503-4.9901-2.5952-9.3999-4.7186-9.7995-4.7186-0.39965 0-2.638-0.98409-4.9741-2.1869s-4.6386-2.1869-5.1166-2.1869c-0.47804 0-2.1526-0.66021-3.7213-1.4671-6.9548-3.5776-18.637-3.5354-30.461 0.11-3.7436 1.1542-7.1738 1.9657-9.2942 2.1989-2.2261 0.24478-3.4715 0.92126-2.597 1.4107 0.78424 0.43889 6.4468 0.02 12.848-0.95068 1.4329-0.21726 2.3235-0.14058 2.3235 0.20006 0 0.83113-2.6004 1.6701-6.4249 2.0728-5.8529 0.61635-4.5298 1.404 1.7364 1.0337 3.8256-0.22609 5.7819-0.15108 5.7819 0.22171 0 0.90741-2.0991 1.3548-7.9274 1.6898-5.8472 0.33598-7.0914 1.1611-3.9914 2.6469 2.801 1.3425 20.548 1.4246 26.824 0.12406 4.1974-0.86977 16.237-1.8229 21.998-1.7414 2.585 0.0365 7.523 1.7416 8.1956 2.83 0.49565 0.80195-0.92428 0.68194-3.2046-0.27084-3.5129-1.4678-24.586-0.35256-26.243 1.3888-0.65879 0.69202 10.389 0.42654 13.462-0.32351 1.1383-0.27781 1.5035-0.16646 1.5035 0.45835 0 1.3485-1.4425 1.5851-11.481 1.8831-10.555 0.3133-11.892 0.59328-9.6988 2.0304 1.1661 0.76409 2.8934 0.9223 10.195 0.93378 8.351 0.0131 10.873 0.43223 8.1229 1.3498-0.68095 0.22717-5.1744 0.37581-9.9855 0.33032-7.797-0.0738-8.6321 0.004-7.6862 0.71973 0.5837 0.44137 1.5149 0.80249 2.0694 0.80249 0.55448 0 1.553 0.33743 2.219 0.74983 1.7949 1.1115 11.765 2.1957 19.342 2.1036 6.6174-0.0805 9.8081-0.46663 16.585-2.0072 4.0801-0.92749 9.5373-1.031 16.885-0.32038 6.9967 0.6767 8.2217 1.9167 1.4298 1.4473-8.2555-0.57049-12.368-0.44698-17.222 0.51723-6.7839 1.3477-12.084 1.8695-18.779 1.8485-4.566-0.0142-5.8782 0.14168-5.6996 0.67744 0.5056 1.5168 16.264 1.7241 20.469 0.2692 0.69411-0.24011 1.3333-0.16835 1.5445 0.1735 0.20593 0.33331-0.35974 0.83413-1.3208 1.1692-3.2445 1.1311-1.7132 2.1192 3.284 2.1192 3.1913 0 4.2733 0.69038 2.1421 1.3668-1.9705 0.62542-1.1464 1.3671 1.5035 1.353 1.4283-0.008 4.8014-0.74302 7.4959-1.6343 3.1175-1.0312 5.0891-1.4303 5.4219-1.0976 0.33276 0.33277 0.24128 0.61217-0.25186 0.76832-0.42614 0.13496-2.3602 0.75807-4.2979 1.3847s-4.1519 1.1431-4.9204 1.1477c-2.0819 0.0124-3.0203 0.73857-2.0235 1.5658 1.2135 1.0071 6.7785 0.96277 10.74-0.0855 6.3402-1.6776 8.8051-2.1599 9.1704-1.7946 0.70385 0.7038-0.80144 2.1513-2.9178 2.8059-1.1838 0.36614-1.9376 0.6915-1.6753 0.72303 0.90306 0.10854-0.88549 1.6975-1.9107 1.6975-0.56457 0-1.0265 0.23738-1.0265 0.52748 0 0.81084 1.8862 1.635 3.0552 1.335 0.57481-0.1475 2.5213 0.24212 4.3254 0.86582 1.8042 0.62372 5.679 1.4068 8.6108 1.7403 4.7928 0.54508 7.9522 2.092 4.2726 2.092-6.4121 0-3.9969 2.2514 3.3089 3.0845 10.354 1.1807 16.585 3.4761 9.4364 3.4761-2.7545 0-1.1298 0.98163 2.1171 1.2792 7.0222 0.64347 11.891 1.7018 11.891 2.5847 0 0.64332-2.0216 0.67291-2.4156 0.0354-0.41441-0.67052-6.2005-0.72696-6.6099-0.0645-0.35063 0.56717 4.0918 2.8468 6.0186 3.0885 0.60139 0.0755 3.6231 0.38409 6.7149 0.68587 6.4383 0.62841 9.3324 1.1118 9.6403 1.6103 0.21212 0.34341-4.3899 0.32996-6.5143-0.019-2.0192-0.33171-1.661 0.8146 0.63375 2.0281 3.1592 1.6706 5.0528 2.0713 6.015 1.2728 0.63943-0.53067 1.1036-0.4903 2.2713 0.19762 0.80717 0.47551 2.6977 1.0461 4.2012 1.2679 1.5035 0.22182 3.6871 0.73736 4.8525 1.1456 1.1654 0.40827 2.6729 0.74231 3.35 0.74231 1.5592 0 2.668 1.2119 1.8537 2.0262-0.40716 0.40713-1.0512 0.34298-2.1725-0.21639-2.6634-1.3286-7.7234-1.647-7.2668-0.45725 0.68117 1.7751 5.6956 3.6771 7.1617 2.7164 1.0726-0.70279 1.4522-0.7108 2.7468-0.058 0.82626 0.41666 2.9784 0.921 4.7826 1.1208 7.6427 0.8462 14.166 3.4045 7.7907 3.0554-2.5695-0.14069-2.7047-0.0822-2.1407 0.9257 0.55841 0.9979 1.4165 1.1608 8.2067 1.5583 4.9548 0.29005 7.3379 1.0671 5.1557 1.6812-3.0733 0.86479 2.0859 4.805 6.1197 4.6737 1.704-0.0554 4.6638 2.2152 4.6638 3.5779 0 1.0737-2.3986 0.86528-3.9331-0.34177-0.7408-0.58275-2.0583-1.2381-2.9277-1.4563-0.86942-0.21821-2.345-0.84768-3.2792-1.3988-0.93411-0.55115-3.5493-1.4755-5.8114-2.054-2.2621-0.57855-6.1796-1.8294-8.7054-2.7797-2.5258-0.95025-5.9455-2.231-7.5993-2.8462-1.6538-0.61515-4.7291-1.921-6.8339-2.902-6.1257-2.8548-8.9366-4.0918-9.2979-4.0918-0.31929 0-6.1656-2.6544-10.931-4.9627-1.2028-0.58266-3.0479-1.5909-4.1004-2.2405-1.0524-0.64961-2.6453-1.2668-3.5399-1.3715-0.8945-0.10472-2.6166-0.71188-3.827-1.3492-1.2103-0.63737-5.1529-2.2024-8.7612-3.4778s-9.4871-3.353-13.064-4.6167c-6.5261-2.3058-11.415-4.5123-16.404-7.4033-2.2382-1.297-7.7038-3.1365-13.312-4.4802-1.4567-0.34902-1.7068 0.80865-0.27336 1.2652 0.52623 0.16762 5.0732 2.2511 10.104 4.6299 5.0313 2.3788 9.2902 4.3252 9.4642 4.3252 0.17422 0 2.4072 0.98409 4.9625 2.1869s4.8443 2.1869 5.0867 2.1869c0.24238 0 1.0274 0.45453 1.7445 1.0101 0.71715 0.55554 2.0419 1.1847 2.944 1.3982 2.275 0.53838 16.718 6.8662 23.38 10.243 0.53046 0.26891 3.6803 1.5942 6.9995 2.9451 3.3193 1.3509 7.244 3.0688 8.7215 3.8175 1.4776 0.74874 3.1915 1.3613 3.8088 1.3613 0.61724 0 3.5415 1.2026 6.4982 2.6724 2.9568 1.4698 6.1333 2.8388 7.0589 3.0421 0.92558 0.2033 1.976 0.72284 2.3343 1.1546 0.35828 0.43172 1.0638 0.78493 1.5678 0.78493 0.50396 0 3.1186 0.98028 5.8102 2.1784s5.1713 2.1822 5.5104 2.1869c0.33897 0.005 0.92268 0.37749 1.297 0.82853s1.0905 0.82007 1.5915 0.82007c0.50101 0 1.8855 0.51203 3.0767 1.1378 2.9752 1.5631 10.753 4.876 11.448 4.876 0.31236 0 1.6728 0.58109 3.0236 1.2913 1.3507 0.71022 3.809 1.7252 5.4628 2.2556 1.6538 0.53035 3.745 1.505 4.6471 2.1659 2.2416 1.6423 8.2736 4.4984 10.934 5.1773 4.4452 1.1344 11.028 3.4382 14.215 4.9748 8.7977 4.2424 12.772 5.9135 14.895 6.2633 1.2764 0.2103 2.4594 0.60689 2.6292 0.88141 0.39272 0.63543 1.7277 0.64786 2.1159 0.0182zm-43.67-22.98c-0.6764-1.0945 0.27806-1.6925 2.7012-1.6925 2.039 0 3.5827 0.71352 2.925 1.352-0.60106 0.58355-5.3002 0.86795-5.6262 0.3405zm-7.215-3.3533c-0.31199-0.31203-1.7758-0.86559-3.253-1.2301-3.0133-0.74364-3.559-1.9694-1.24-2.785 1.1551-0.40623 1.7467-0.27157 2.944 0.67023 0.94749 0.74529 2.2753 1.1786 3.6115 1.1786 2.4951 0 2.8152 1.0368 0.63306 2.0502-1.7844 0.82873-1.9747 0.83692-2.6956 0.11605zm-556.47-75.41c1.8042-0.53994 4.3156-1.2637 5.5809-1.6083 3.1736-0.86435 3.2332-1.1827 1.0623-5.6672-1.0517-2.1726-2.933-6.6563-4.1806-9.964-2.4364-6.4594-2.3393-6.2564-6.0162-12.576-5.5767-9.5842-7.9775-10.048-7.0645-1.3655 0.48203 4.5842 0.15818 19.411-0.53138 24.329-1.077 7.6804 2.0204 9.5839 11.149 6.8518zm349.3-15.25c1.5604 0.0186 3.8097-0.22156 4.9984-0.53379 16.161-4.2448 17.907-4.5877 23.921-4.6959 6.4309-0.1158 6.7821-0.47142 3.179-3.2192-2.4139-1.8409-2.9088-2.0102-4.9295-1.6871-1.245 0.19908-3.4027 0.0673-4.8405-0.29566-1.4268-0.36018-4.0514-1.0315-5.8324-1.4919-7.9327-2.0506-35.273 1.365-35.301 4.41-0.007 0.73088 9.4857 0.001 14.21-1.0922 2.2552-0.52198 4.9614-0.96913 6.0139-0.99366 2.0273-0.0472 3.1174 0.9409 1.3279 1.2037-2.9269 0.42986-10.961 2.475-11.415 2.9058-0.65139 0.61827-0.15526 0.66195 5.7853 0.50955 4.5924-0.11784 6.1073 0.36575 4.7056 1.5021-0.37256 0.30204-5.2288 0.71594-10.792 0.9198-10.064 0.36883-12.318 0.80777-9.7874 1.9062 1.784 0.7744 12.418 1.5355 14.356 1.0276 0.85919-0.22507 2.8389-0.39398 4.3994-0.37533zm-17.716-4.3792c0-0.60391-4.1579-1.0871-6.4545-0.75001-3.2278 0.47375-1.7837 1.2256 2.3541 1.2256 2.2552 0 4.1004-0.21402 4.1004-0.47561zm-6.8339-5.0347c4.3807-0.57081 6.9541-1.2153 14.347-3.5932 2.7462-0.88327 5.1756-1.2608 7.9274-1.232 2.1823 0.023 7.4121 0.0131 11.622-0.0211l7.654-0.0628-1.7855-1.6241c-1.3756-1.2514-2.3168-1.6291-4.1004-1.6458-1.4908-0.0139-3.3853-0.5978-5.3218-1.64-1.6538-0.89008-3.5691-1.6184-4.2563-1.6184-0.68712-0.00007-1.7942-0.34458-2.4602-0.76557-1.8612-1.1766-9.931-1.8772-15.86-1.377-5.5801 0.47081-7.2658 0.83256-16.742 3.5928-0.54573 0.15895-0.6035 0.39701-0.19536 0.80512 0.38114 0.38113 0.92698 0.40062 1.5949 0.0569 0.55848-0.28739 2.3686-0.6807 4.0224-0.87402 1.6538-0.19331 4.8521-0.80598 7.1073-1.3615 4.3974-1.0831 6.1101-1.0059 4.8261 0.21752-1.7199 1.6389-16.028 4.3788-26.011 4.981-4.2938 0.25903-5.5417 0.77245-3.6456 1.5 1.2132 0.46557 7.932 0.36148 12.803-0.19835 2.2552-0.25918 5.638-0.65001 7.5173-0.86848 2.0799-0.24179 3.417-0.19328 3.417 0.12404 0 0.95758-6.4424 2.2393-14.215 2.828-2.4404 0.18482-3.1173 0.94346-1.9716 2.2094 1.472 1.6265 4.6059 1.7562 13.726 0.56778zm-20.596-10.344c4.1114-0.60132 9.4435-1.7002 11.849-2.4419 9.9824-3.078 13.488-3.652 21.043-3.4456 8.0235 0.21919 7.8335 0.26224 5.0628-1.1469-7.991-4.0643-27.955-6.6977-30.614-4.0382-0.66215 0.66215-1.7637 1.3089-2.4479 1.4373-0.68423 0.12837-3.0892 0.61842-5.3444 1.089-2.2552 0.4706-5.0844 1.0161-6.2872 1.2122-2.891 0.47134-8.0196 1.777-8.3746 2.132-0.81884 0.81885 0.89745 0.9533 4.4196 0.34622 5.9505-1.0256 8.8755-1.0515 8.8755-0.0785 0 0.9241-5.9019 2.6952-9.0891 2.7275-3.1132 0.0317-5.3988 0.63714-5.3988 1.4304 0 0.71242 3.6046 1.7278 4.1604 1.172 0.15526-0.15534 0.94344-0.083 1.7513 0.16073 2.1335 0.64373 2.2244 0.63887 10.395-0.55614zm-337.5-2.9346c10.408-0.9038 16.499-12.814 8.7665-17.141-0.42096-0.23557-1.3355-1.2128-2.0324-2.1717-2.8895-3.976-8.1296-10.063-13.01-15.114-5.7033-5.9015-5.839-5.9158-5.9703-0.6277-0.0634 2.5546-2.792 15.297-4.1531 19.395-0.51328 1.5453-0.80392 2.939-0.64586 3.0971 0.15804 0.15807-0.0853 1.3107-0.54076 2.5615-2.0194 5.5456-1.1665 9.0553 2.2264 9.1605 0.93065 0.0288 2.9222 0.38309 4.4257 0.78719 2.4606 0.66134 3.8498 0.66805 10.934 0.0528zm317.98-6.0126c14.51-4.7002 23.195-6.1457 33.152-5.5179 3.9209 0.24722 4.5274-0.52132 1.0934-1.3855-1.278-0.32161-5.1771-1.5612-8.6648-2.7546-5.8499-2.0018-6.7974-2.1699-12.228-2.1699-6.3323 0-6.1657-0.0953-4.9556 2.8369 0.30142 0.73071-0.0561 1.0388-1.7148 1.4763-3.862 1.0189-13 2.7384-15.975 3.0059-3.293 0.29613-4.0978 0.79572-3.5561 2.2074 0.31309 0.81631 0.75039 0.89815 2.8882 0.54076 1.3855-0.23162 3.3048-0.37854 4.2653-0.32649 0.96043 0.052 1.8975-0.15017 2.0824-0.44935 0.4123-0.66709 3.0053-0.72811 3.0053-0.0708 0 0.26031-2.3399 1.0448-5.1998 1.7434-6.0668 1.4819-6.1358 1.8589-0.48013 2.6218 0.33386 0.0451 3.1633-0.74602 6.2872-1.7579zm-20.289-8.3278c2.2552-0.48812 4.9614-1.222 6.0139-1.6308 1.0524-0.4088 3.5126-1.0182 5.4672-1.3543 1.9545-0.33608 3.8867-0.88686 4.2939-1.224 0.89272-0.73913 5.1496-1.39 11.963-1.8291 4.1349-0.26651 6.9084-1.2891 3.4962-1.2891-0.52663 0-2.5418-0.63316-4.4781-1.407-10.058-4.0198-23.207-4.6672-22.527-1.1093 0.18479 0.96612-0.16766 1.259-2.1407 1.7793-1.299 0.3425-4.8203 1.3771-7.825 2.299-3.0048 0.92193-6.9392 1.8272-8.7431 2.0118-3.2851 0.33612-3.9884 0.55572-3.4628 1.0813 0.34115 0.3413 5.1116 0.36636 7.0082 0.0368 5.7948-1.0069 9.9608-2.0502 12.222-3.0611 1.7817-0.7963 2.836-1.0056 3.2053-0.63627 0.91837 0.91837-0.004 1.6502-3.282 2.6053-1.7187 0.50069-3.617 1.1117-4.2184 1.3579-0.60138 0.24613-2.2005 0.61285-3.5536 0.81493-3.1025 0.46333-3.4872 0.7-2.6932 1.6567 0.85087 1.0252 4.217 0.98809 9.2538-0.10209zm-26.516-7.3774c3.5124-0.50727 10.082-2.2939 15.182-4.1287 1.1337-0.40785 2.7643-0.74154 3.6236-0.74154 0.85925 0 2.4795-0.38323 3.6005-0.85161 1.121-0.46839 2.5657-0.8004 3.2104-0.73782 2.0654 0.2005 8.0061-0.72087 8.0061-1.2417 0-1.175-7.9265-4.2044-11.754-4.4924-2.1048-0.1584-5.5492-0.43481-7.654-0.61428-4.2637-0.36352-10.2 0.26203-10.477 1.1039-0.10752 0.32767 1.4446 0.57323 3.8738 0.61289 5.9206 0.0967 9.6646 1.4539 5.3729 1.9477-1.2358 0.14219-1.5329 0.47499-1.6688 1.8694-0.15454 1.5847-0.37038 1.7415-3.2803 2.3825-1.7132 0.37738-3.8282 0.90563-4.7 1.1739-0.87179 0.26825-2.2665 0.48773-3.0995 0.48773-0.8329 0-2.9489 0.3472-4.7022 0.77153-1.7533 0.42434-3.8643 0.92107-4.6912 1.1038-1.5446 0.34141-2.0365 1.6325-0.82007 2.1528 0.74918 0.32041 4.0749 0.0544 9.9776-0.79809zm-14.247-8.988c0.58367-0.44148 1.4874-0.80269 2.0082-0.80269 0.52084 0 1.7351-0.66316 2.6984-1.4737 1.0223-0.86019 2.8037-1.6463 4.279-1.8884 1.3902-0.22809 3.7577-0.67184 5.2612-0.98611 7.3462-1.5356 10.11-1.7966 12.54-1.1846 6.1523 1.5492 8.5162 0.45609 4.3209-1.998-1.4009-0.8195-3.7326-2.5234-5.1816-3.7865-1.6676-1.4536-3.3914-2.4241-4.6968-2.6441-3.0989-0.52238-8.1344-2.2944-12.723-4.4775-5.8223-2.7698-15.878-3.1401-11.481-0.42277 1.0308 0.63711 0.56498 1.9135-0.69841 1.9135-2.6621 0-5.3154 3.2613-5.3154 6.5334 0 2.0217 0.27627 2.0502 2.8602 0.29428 3.8153-2.5926 19.663-4.7024 21.512-2.864 0.82769 0.82295-0.44106 1.159-5.9262 1.5696-3.0789 0.2305-5.6596 0.43293-5.7347 0.44983-1.6538 0.37178 0.81595 1.1242 3.6903 1.1242 3.8445 0 4.7656 0.55265 2.7336 1.6401-1.6114 0.86236-1.3305 1.6402 0.59227 1.6402 2.1352 0 1.8755 1.2064-0.35974 1.6713-0.87959 0.18296-2.3866 0.74282-3.3489 1.2442-0.96232 0.50134-2.1027 0.91153-2.5341 0.91153-0.81592 0-5.7414 1.3934-7.8806 2.2294-1.4692 0.57415-1.6001 1.4207-0.27336 1.7674 1.7453 0.4561 2.5861 0.35023 3.6581-0.46059zm-0.93069-4.083c1.1221-0.60138 2.4693-1.0934 2.9939-1.0934 1.4578 0 5.3496-1.6865 5.3496-2.3182 0-0.82412-3.898-0.16967-6.6598 1.1182-1.2986 0.60548-3.1658 1.4013-4.1495 1.7684-0.98369 0.36712-1.9208 0.88147-2.0824 1.143-0.55189 0.89296 2.5039 0.47782 4.5483-0.6179zm-28.542-3.3353c0.20046-0.63166 0.094-1.4189-0.23654-1.7495-0.33058-0.33058-0.60102-1.2754-0.60102-2.0996s-0.23691-1.645-0.52678-1.8241c-0.57591-0.35594 0.1939-1.4014 3.4068-4.6278 1.7916-1.7991 1.9518-2.1581 1.2301-2.7571-1.517-1.259-0.97979-2.1949 1.26-2.1949 1.8381 0 2.2637-0.26574 3.5348-2.2072l1.4451-2.2072-1.3179-0.60046c-3.2379-1.4753-2.0234-3.7349 1.495-2.7815 2.1477 0.58199 2.4192 0.53162 3.643-0.67579l1.3223-1.3047-1.7902-1.6722c-2.4628-2.3006-2.9162-2.1782-7.3485 1.9838-5.9215 5.5604-7.3095 8.1029-8.301 15.206-0.20994 1.5035-0.73136 3.4224-1.1588 4.2644-0.81104 1.5973-0.60722 3.0692 0.71543 5.1665 0.9776 1.5502 2.7479 1.595 3.2282 0.0816zm-38.945-5.5932c-1.5827-2.6061-2.3492-3.1643-2.3492-1.7106 0 1.2325 2.0427 5.0316 2.8556 5.311 1.2572 0.43208 1.0507-1.0364-0.50645-3.6004zm52.113-1.2888c1.5009-3.5316 9.5507-12.745 11.135-12.745 0.30507 0 0.55459-0.35788 0.55459-0.7953 0-1.2078-3.5515-1.6979-5.0742-0.70013-1.547 1.0136-5.3134 4.7499-5.3134 5.2709 0 0.2122-0.62202 1.2289-1.3823 2.2594-0.97119 1.3163-1.2908 2.2903-1.0746 3.2746 0.16912 0.77056-0.0696 2.3046-0.53122 3.4089-0.46139 1.1043-0.83892 2.3848-0.83892 2.8455 0 1.8266 1.047 0.65738 2.5246-2.8191zm-43.149-3.2562c0.20436-0.5326-0.0255-1.17-0.56387-1.5637-1.3065-0.95531-1.1304-1.6787 0.73124-3.0043 2.4299-1.7302 1.9924-3.827-0.79846-3.827-1.4685 0-2.1931 4.421-1.4561 8.8841 0.12932 0.78324 1.7442 0.40484 2.0872-0.4891zm-8.5928-5.7641c1.3579-2.8105 1.3938-3.7243 0.14653-3.7243-0.88438 0-1.2692 0.7254-2.6827 5.0571-0.65784 2.016 1.4545 0.9059 2.5361-1.3328zm-230.15-0.64211c8.6058-1.8006 17.659-8.9935 15.767-12.528-0.31576-0.59001-0.89557-3.196-1.2885-5.7911-0.74589-4.9266-1.5597-7.3518-6.2617-18.66-1.5629-3.7587-3.1224-7.5105-3.4656-8.3374-0.98555-2.3749-1.8141-1.8055-1.8141 1.2467 0 4.2716-4.7459 12.991-9.0667 16.658-1.7715 1.5035-5.1104 4.5246-7.4196 6.7135-2.3316 2.2101-4.9341 4.1682-5.8524 4.4032-4.0134 1.0273-3.8057 6.3909 0.42184 10.895 5.815 6.1953 9.7816 7.3238 18.979 5.3993zm242.08-7.2507c0.17324-1.7805-1.141-3.7073-2.2717-3.3304-0.81453 0.2715-1.6772 3.38-1.2482 4.4979 0.65126 1.6972 3.3275 0.80952 3.5199-1.1674zm-7.3438-0.22135c1.7134-2.0363 2.4667-5.3563 1.3725-6.0493-1.9971-1.2648-3.1142-0.57755-3.997 2.4592-1.0311 3.5469-1.0402 3.7529-0.2028 4.5903 0.95364 0.95364 1.2805 0.83801 2.8272-1.0002zm-5.9474-8.719c0.18873-0.59462 1.1894-2.094 2.2237-3.332s1.8806-2.5623 1.8806-2.9429c0-0.38063 0.59075-1.5626 1.3128-2.6265 0.9556-1.4082 1.149-2.0983 0.71073-2.5365-0.95785-0.95785-2.5702-0.71818-2.5702 0.38205 0 2.263-2.4203 3.072-2.9444 0.98405-0.4748-1.8918-3.3913-2.8631-4.1788-1.3918-0.81602 1.5247-2.171 1.3476-2.171-0.28375 0-1.8604-1.928-2.8832-3.2239-1.7104-1.081 0.97834-2.2433 0.26057-2.2433-1.3854 0-1.4041-2.9433-3.6294-3.1897-2.4115-0.32551 1.609-1.9512 0.63131-2.5603-1.5398-0.61425-2.1893-2.4507-3.9079-2.4507-2.2934 0 0.46598-0.3604 0.84724-0.80084 0.84724-0.98139 0-2.0343-1.8327-1.6413-2.8569 0.35186-0.9169-2.1757-3.4085-2.9636-2.9215-0.36852 0.22776-0.38995 0.81381-0.0614 1.6781 0.31603 0.83124 0.3082 1.4496-0.0208 1.6531-0.91272 0.56409-1.5785-0.25991-2.3512-2.9101-0.88336-3.0292-2.6947-3.6742-2.9948-1.0665-0.17712 1.5393-1.7405 2.1762-1.7405 0.70912 0-2.103-1.265-3.5794-3.0668-3.5794h-1.7978l0.8242 1.9726c1.1446 2.7394 0.47297 3.0188-1.5961 0.66399-2.2341-2.5426-6.3912-3.4845-6.3912-1.4482 0 1.301 1.9728 3.732 3.0286 3.732 0.56074 0 8.1703 9.8146 8.5932 11.083 0.0835 0.25055 1.0701 0.66264 2.1924 0.91576 2.6876 0.60615 2.6685-0.0659-0.1463-5.1651-1.2028-2.1789-2.1869-4.1158-2.1869-4.3044 0-0.8566 1.6038-0.22524 1.9144 0.75365 0.19139 0.60301 0.94114 1.8013 1.6661 2.6629 0.72498 0.86159 1.7897 2.6666 2.366 4.0111 1.129 2.6339 4.5955 5.8975 6.2642 5.8975 0.61715 0 0.90778-0.27288 0.72787-0.68339-1.8105-4.1312-2.9894-7.2612-2.8045-7.4461 0.57742-0.57742 1.9512 1.443 3.8542 5.6683 1.7715 3.9333 2.3052 4.6576 3.6499 4.9529 2.0886 0.45875 2.2117 0.23123 1.1932-2.2064-0.56543-1.3533-0.67899-2.255-0.32817-2.6059 0.66477-0.66477 1.7252-0.0691 1.7252 0.96915 0 0.42404 0.49692 1.7243 1.1043 2.8895 1.9928 3.8232 5.5414 6.1302 3.905 2.5388-0.8653-1.8991-0.80755-4.0769 0.10811-4.0769 0.42821 0 1.2188 1.4494 1.8639 3.417 1.4667 4.4734 2.5862 4.5555 2.5862 0.1896 0-3.9055 0.88829-4.5057 2.1184-1.4314 1.0979 2.7439 1.1164 3.8751 0.0858 5.2376-0.44147 0.58369-0.8105 1.3688-0.82007 1.7446-0.0277 1.0863 0.96789 0.79201 1.3455-0.39773zm11.727-3.1346c1.8432-3.403 1.7594-3.7332-1.0794-4.2542-2.224-0.40815-3.1742 0.36051-4.5426 3.6743-0.90314 2.1872-0.83993 2.3082 1.8236 3.4895 1.7692 0.78467 1.8176 0.74759 3.7984-2.9096zm6.3971-8.7509c0.92617-3.6902-2.9171-4.1682-5.6796-0.70641l-1.2272 1.5378 2.3206 1.3975 2.3206 1.3975 0.96369-1.1395c0.53003-0.62672 1.1159-1.7458 1.3019-2.4869zm-53.93-2.5458c0-1.1335-3.0907-5.3314-4.1144-5.5884-1.6917-0.4246-4.9751-4.6918-6.1454-7.9868-1.2256-3.4508-3.4081-3.8678-3.4081-0.6513 0 1.9412 2.9842 6.07 9.1028 12.595 1.424 1.5184 4.5651 2.6413 4.5651 1.6319zm-18.316-1.8c0.58715-0.80296 1.0431-0.83541 3.8418-0.27335 6.9663 1.399 7.3524 0.71543 2.7246-4.8237-1.0865-1.3004-2.3167-3.1813-2.7339-4.1797-0.41717-0.99841-1.6344-2.5844-2.705-3.5244s-1.9465-2.0672-1.9465-2.5048c0-0.43764-0.24602-0.64366-0.54672-0.45782-0.30069 0.18585-0.54671 0.92391-0.54671 1.6402 0 2.7822-2.4711 1.9066-3.8218-1.3543-0.80152-1.935-3.0671-2.7954-2.4549-0.93224 0.21562 0.65619 0.37695 1.8176 0.35853 2.5808-0.0544 2.2523 2.7489 7.3314 4.1584 7.5344 1.1186 0.1611 1.213-0.0447 1.213-2.6424 0-3.0526 0.9847-3.5872 1.6976-0.92163 0.21471 0.80289 1.5198 2.7508 2.9001 4.3287 2.7466 3.1398 3.4346 5.3347 1.3169 4.2013-1.5818-0.84656-6.8538-2.0898-8.9655-2.1142-0.92629-0.0106-2.8945-0.64216-4.3737-1.4032-1.885-0.96982-3.1965-1.2941-4.3844-1.084-0.93215 0.16485-3.3924 0.0398-5.4672-0.27784-2.0748-0.31763-5.2485-0.72744-7.0526-0.91068-1.8042-0.18325-4.0253-0.72715-4.9359-1.2087-2.1732-1.1493-7.0919-1.1965-7.0919-0.0681 0 1.1894 11.346 4.2654 18.315 4.9653 6.1565 0.61828 14.55 2.3355 17.222 3.5235 2.199 0.97772 2.5026 0.96911 3.2792-0.093zm77.303-0.11947c1.6684-1.2828 1.0847-2.2497-1.3582-2.2497-2.2696 0-3.1365 1.3975-1.5751 2.5393 1.277 0.9338 1.3517 0.92642 2.9332-0.28954zm-86.15-11.42c-1.0052-3.8492-2.7713-7.3882-3.4712-6.9556-0.33634 0.20786-0.32876 0.69668 0.0208 1.3502 0.82209 1.5361 0.66831 2.6162-0.54524 3.8298-1.4615 1.4615-1.6141 1.3948-1.5641-0.68339 0.0507-2.1074-2.2668-8.7123-3.1594-9.0045-0.42614-0.13949-0.64292 1.1083-0.68557 3.9464-0.0538 3.5777 0.0621 4.1281 0.83982 3.9892 0.59426-0.10614 1.0763 0.3987 1.4123 1.479 1.0932 3.5152 0.97304 3.3302 1.5879 2.4449 0.42286-0.60884 0.62643-0.63838 0.83622-0.12137 0.41543 1.0238 1.1152 0.82429 1.438-0.41003 0.50481-1.9304 1.3306-1.1708 1.6924 1.5568 0.40994 3.0903 0.87731 3.765 1.7661 2.5494 0.49429-0.67598 0.45598-1.5802-0.16824-3.9706zm-43.906-11.983c0-0.76406-2.6451-2.2484-7.217-4.0498-1.5935-0.62789-5.5425-2.3707-8.7756-3.8729-4.391-2.0402-6.2611-2.6472-7.3913-2.3989-2.6699 0.5864-3.3996-0.52527-3.7238-5.6732-0.32776-5.2031-0.85822-6.6004-2.5057-6.6004-1.0313 0-1.1054 0.20469-0.74152 2.0502 0.22229 1.1276 0.56696 3.4216 0.76589 5.0979 0.41172 3.4693 1.7972 5.9731 3.3053 5.9731 0.59078 0 1.4985 0.79944 2.1376 1.8825 0.79994 1.3558 1.7113 2.0443 3.2572 2.4605 1.1805 0.3179 3.7948 1.4372 5.8096 2.4873 2.0147 1.0502 5.7768 2.5221 8.36 3.271 2.5833 0.74892 4.8377 1.5025 5.0097 1.6745 0.39797 0.39798 1.7097-1.368 1.7097-2.3018zm-8.2007-11.599c0-0.73648-9.8154-6.1607-10.802-5.9694-1.6562 0.32134-1.3903 1.534 0.33635 1.534 0.90939 0 1.8116 0.25597 2.005 0.56887 1.2334 1.9957 8.4604 5.2985 8.4604 3.8664zm-28.74-8.6443c-0.0654-4.5608-0.82283-6.4955-1.6743-4.2766-0.38716 1.0089 0.85135 9.0323 1.3942 9.0323 0.19153 0 0.31757-2.1401 0.28007-4.7557zm45.449 4.1527c0.20498-0.33168-0.11991-1.7463-0.72199-3.1436-0.60207-1.3973-1.3088-3.245-1.5705-4.1061-0.30809-1.0136-1.2468-1.9773-2.6627-2.7336-1.2028-0.64244-2.3836-1.4756-2.6241-1.8515-1.4828-2.3178-1.9362 0.60931-0.65622 4.237 1.0517 2.9809 1.0719 5.4672 0.0443 5.4672-0.72526 0-0.98927-0.7613-2.4647-7.1073-0.70906-3.0497-2.6676-7.101-3.6072-7.4616-0.62378-0.23936-0.77034-0.75173-0.52915-1.8498 0.38432-1.7498-0.48468-2.585-1.6679-1.603-1.1518 0.95589-0.97797 3.1096 0.40801 5.056 0.66227 0.93008 1.159 2.2362 1.1039 2.9024-0.0619 0.74769 0.61528 1.9115 1.7691 3.0404 1.3763 1.3466 1.9369 2.433 2.1256 4.1191 0.41636 3.7198 2.5302 6.0675 3.6236 4.0244 0.55892-1.0443 0.62913-1.0389 3.4362 0.268 3.2759 1.5252 3.4856 1.5641 3.9939 0.7418zm-19.443-0.96748c0-0.62652-4.7418-4.9901-5.4227-4.9901-1.4844 0-0.85177 1.2282 1.6647 3.2319 2.7877 2.2196 3.758 2.6735 3.758 1.7582zm-39.91-8.2014c0-1.6182-8.4608-9.9098-10.112-9.9098-2.8482 0-1.4859 1.691 7.6519 9.4984 1.9702 1.6833 2.4602 1.7653 2.4602 0.41143zm-2.0943-7.4376c-1.847-1.9744-3.517-4.2229-3.7112-4.9967-0.1942-0.77375-0.83571-1.9369-1.4256-2.5848-0.97747-1.0736-5.4963-8.4101-7.3362-11.911-0.75124-1.4293-0.52323-3.2084 0.41118-3.2084 0.26851 0 0.48823 0.45741 0.48823 1.0165 0 1.6109 6.5541 8.769 8.064 8.8071 1.1051 0.0281 0.79451-0.76512-0.95675-2.4429-3.3061-3.1674-1.5599-3.3566 2.5238-0.27335 4.061 3.066 5.7663 1.2456 2.3377-2.4954-1.7782-1.9403-0.5462-2.8293 1.2772-0.92152 4.3684 4.5706 5.3449 5.295 7.2266 5.3603 2.1998 0.0764 2.6255-0.96112 0.84946-2.0702-0.60138-0.37557-1.0934-0.8697-1.0934-1.0981 0-0.88749 1.5815-0.34236 3.5536 1.2249 2.4361 1.936 2.6803 1.994 2.3018 0.54671-0.45525-1.7409 1.3076-1.3474 3.674 0.82007 1.149 1.0524 2.4887 1.9057 2.9771 1.8961 0.93774-0.0182 0.87903-0.0782-2.6656-2.7183-1.0332-0.76952-1.2134-1.1736-0.73843-1.6557 0.87794-0.891 2.4928-0.25266 4.8706 1.9254 1.1179 1.024 3.2122 2.7972 4.6541 3.9407 1.4419 1.1434 2.6996 2.571 2.7948 3.1724 0.12079 0.76234 0.52599 1.045 1.3382 0.93342 0.85784-0.11784 1.257 0.20651 1.5139 1.2301 0.36094 1.4381 1.1024 1.802 1.7004 0.83449 0.49383-0.79904 1.3613-0.10446 1.3613 1.09 0 0.55911 0.80289 1.5128 1.7842 2.1193 0.9813 0.60648 2.3564 1.7608 3.0558 2.5652 2.7459 3.1581 1.5999-5.7451-1.2233-9.5032-0.30189-0.40189-0.68696-1.755-0.85569-3.0069-0.28244-2.0954-0.43681-2.2762-1.944-2.2762-1.4716 0-1.6555-0.19325-1.8185-1.9113-0.23323-2.458-1.0565-3.5234-2.0716-2.6809-0.78701 0.65317-1.0599 0.27094-1.4054-1.9683-0.12114-0.78525-1.8467-1.9209-6.1221-4.0293-6.4022-3.1572-7.23-3.3367-20.289-4.3993-3.8954-0.31696-7.8724-0.98987-9.7898-1.6564-4.1594-1.4459-5.578-1.4044-8.2518 0.24181-1.2028 0.74051-2.9572 1.7116-3.8986 2.158-4.0685 1.929-1.8487 11.521 4.4305 19.145 3.1465 3.8203 1.952-0.0439-1.4299-4.6257-1.9055-2.5816-3.3351-5.9034-2.8668-6.6611 0.59009-0.95478 1.7509-0.37435 2.1096 1.0548 0.35442 1.4121 6.0966 10.516 11.334 17.969 2.4825 3.5328 5.2941 5.8724 6.1242 5.0963 0.28579-0.2672-0.92506-1.9814-2.8629-4.0529zm67.153 0.80894c-1.603-1.2529-13.26-7.1082-14.152-7.1082-1.1963 0-0.54172 0.83665 1.4584 1.8639 12.546 6.4436 16.114 7.9179 12.693 5.2442zm3.6912-2.8464c-0.35313-0.92025-6.8173-4.7505-10.799-6.3986-1.6538-0.6846-4.553-2.083-6.4427-3.1076-3.8566-2.091-5.04-2.304-5.0346-0.90611 0.004 1.1446 2.6843 3.0644 5.8222 4.1711 1.2498 0.44075 4.2206 1.8045 6.602 3.0306 2.3813 1.226 4.5086 2.2292 4.7273 2.2292 0.21873 0 1.2981 0.61185 2.3986 1.3597 1.9774 1.3437 3.3152 1.158 2.7257-0.37823zm-85.152-3.4991c0-0.18191-0.74114-1.4289-1.647-2.7711-1.8989-2.8136-3.8582-8.0971-4.3239-11.659-0.26472-2.0254-0.50408-2.4286-1.3542-2.2816-0.56794 0.0983-1.2331-0.14572-1.4781-0.54214-0.36-0.58245-0.57868-0.58762-1.1394-0.027-0.5411 0.54111-0.55052 0.90121-0.0428 1.6356 0.35809 0.51794 1.7595 3.1559 3.1143 5.8621 2.393 4.7802 2.7585 5.4278 4.858 8.6084 0.89944 1.3626 2.013 2.0126 2.013 1.1751zm-27.27-17.558c0.55838-0.55838-0.16041-3.0898-1.0299-3.6272-0.26687-0.16493-1.2861 0.54923-2.265 1.587-1.076 1.1408-2.3027 1.8869-3.1022 1.8869-0.72731 0-1.3224 0.23664-1.3224 0.52587 0 0.67153 7.0139 0.33295 7.7195-0.37265zm-18.248-2.106c0.12986-2.1099 0.1167-2.126-0.75009-0.9175-0.5484 0.76461-1.4524 1.2301-2.3888 1.2301-1.443 0-3.0397 1.152-2.435 1.7568 0.15917 0.15916 1.4487 0.2419 2.8655 0.1838l2.5761-0.10559 0.13219-2.1476zm8.2616 2.0139c0.56805-0.35995 0.59979-0.7305 0.13668-1.5958-0.97382-1.8196-0.74918-2.4475 0.74175-2.0733 1.485 0.37271 2.7452-1.0955 1.9897-2.318-1.4391-2.3286-4.6166-1.3311-7.1527 2.2454-1.9434 2.7406-1.8502 3.4048 0.53783 3.8332 2.3002 0.41264 2.9773 0.39611 3.7468-0.0915zm-19.328-5.1247c3.0826-1.5304 8.8453-3.3102 9.4693-2.9245 1.0249 0.63343 5.8666-2.7568 7.0786-4.9566l1.2582-2.2837-1.4199-0.99659c-0.78095-0.54813-2.153-1.5808-3.049-2.2947-0.896-0.71398-1.7486-1.1786-1.8946-1.0326-0.49641 0.49641 0.77047 3 1.6982 3.356 2.5323 0.97172-8.9422 7.4293-13.379 7.5292-3.311 0.0746-5.2471 1.3388-5.7823 3.7756-0.53805 2.4497 0.60284 3.6427 2.1386 2.2363 0.63143-0.57823 2.3782-1.662 3.8816-2.4085zm-20.521 1.8192c0.98925-1.8484 0.58231-6.0498-0.58598-6.0498-0.26852 0-0.48822 0.59904-0.48822 1.3312s-0.25608 2.0047-0.56903 2.8279c-0.9614 2.5287 0.43928 4.1404 1.6432 1.8908zm3.497-10.222c0.49279-1.0334 0.89598-2.4444 0.89598-3.1356 0-0.81187 0.78557-1.888 2.2192-3.0401 1.5497-1.2454 2.1733-2.1389 2.067-2.9618-0.21154-1.6384 0.47889-2.5451 1.9379-2.5451 1.3 0 4.0269-2.4234 3.2478-2.8862-0.92346-0.5485-4.8455-0.93768-5.4077-0.53658-2.1823 1.5571-8.438 13.87-8.438 16.609 0 2.1325 2.1968 1.183 3.4777-1.5032zm-30.496 1.7938c0.43621-1.1367-2.571-15.284-4.4713-21.034-0.82508-2.4969-0.66033-3.3765 0.63239-3.3765 0.49073 0 0.79436 0.56694 0.80519 1.5035 0.0095 0.8269 0.3786 1.981 0.82007 2.5647 0.44148 0.58368 0.80598 1.6908 0.81 2.4602 0.004 0.76943 0.7388 3.4902 1.6328 6.046 0.89403 2.5559 1.6288 4.9782 1.6328 5.383 0.0193 1.941 1.7935 6.6447 2.5063 6.6447 1.0469 0 1.0128-2.5607-0.0929-6.9695-0.81642-3.2554-0.81196-3.5545 0.06739-4.5262 1.0777-1.1908 0.96975-1.9397-1.0531-7.3096-1.4943-3.9667-1.7746-5.7969-0.88773-5.7969 1.2367 0 4.0775 8.7157 6.2815 19.272 0.45176 2.1637 1.7301 1.8736 2.1119-0.47923 0.37906-2.3359-0.90198-12.159-1.806-13.848-0.7402-1.3831-0.54496-3.9553 0.3218-4.2394 0.36178-0.11857 1.2886 2.2672 2.2885 5.8911 1.9627 7.1132 1.9361 7.071 3.3859 5.3723 1.1896-1.3938 1.1924-2.0961 0.03098-7.8004-0.43017-2.1131-0.46934-3.3972-0.11445-3.752 0.7664-0.7664 1.7282-0.0127 1.7282 1.3542 0 2.9539 1.8282 5.8145 2.5364 3.9688 3.7524-9.7783-16.095-21.658-38.346-22.952-6.7705-0.39382-15.982-0.83581-17.222-0.82633-0.45104 0.003-2.7267-0.007-5.0571-0.0239-5.6701-0.0404-5.7428 2.0326-0.13668 3.8934 1.2028 0.39922 2.6789 1.1277 3.2803 1.6189 0.60139 0.49119 2.016 1.445 3.1436 2.1195 1.1276 0.67455 2.0502 1.5262 2.0502 1.8926 0 1.2404 1.1882 1.966 2.2706 1.3867 1.5939-0.85304 3.1965 0.30514 3.1965 2.3101 0 1.7557 2.1509 7.0289 2.8671 7.0289 0.60262 0 0.50554-0.96047-0.21346-2.1118-0.90626-1.4512-0.15764-3.9021 1.1919-3.9021 1.3543 0 3.257 2.9794 3.2598 5.1043 0.0011 0.85286 0.51753 3.4361 1.1476 5.7405 0.63004 2.3044 1.4275 5.2546 1.7721 6.5559 0.34461 1.3013 0.93621 2.6231 1.3147 2.9372 1.1073 0.91894 0.85463-0.7294-0.95199-6.2116-1.7492-5.308-2.0444-8.0363-0.98409-9.0966 1.6717-1.6717 4.2644 0.30958 4.2644 3.2588 0 1.3432 0.986 4.9604 3.7007 13.577 0.61272 1.9447 1.2836 3.0671 1.9031 3.1837 1.351 0.2544 1.2776-0.22069-1.5775-10.203-2.0252-7.0805-2.4067-9.0283-1.8372-9.3802 1.2397-0.7662 2.1531 0.0324 2.7226 2.3811 0.30237 1.247 0.95728 3.3744 1.4553 4.7275 0.49804 1.3531 1.3894 3.9364 1.9808 5.7405 3.1434 9.589 4.7086 12.344 5.6377 9.9228zm49.844-0.15317c1.7815-0.47742 1.5188-1.6822-0.89243-4.0934-3.1027-3.1027-6.5078-2.6467-3.9496 0.52893 0.64195 0.79689 1.4492 2.0024 1.7939 2.679 0.66186 1.2991 1.0664 1.4166 3.0481 0.88552zm6.672-2.9085c1.5715-0.9941-0.67266-3.6019-5.8141-6.7562-1.6186-0.99303-1.0459 0.89638 1.1939 3.939 2.4604 3.3422 3.1377 3.7552 4.6203 2.8173zm-30.025-5.8017c2.337-4.2337 2.4918-5.1215 0.71784-4.1168-0.5555 0.31461-2.0085 0.8205-3.2289 1.1242-1.7458 0.43444-2.4743 1.0067-3.417 2.6839-1.467 2.6102-1.5455 3.6097-0.24136 3.0728 2.4068-0.99083 2.8703-0.95641 2.8703 0.21311 0 2.1017 0.98727 1.2108 3.2991-2.9772zm29.23-31.957c14.738-2.078 31.436-6.4674 31.436-8.2638 0-1.1101-11.132 0.0742-18.588 1.9776-2.8566 0.7292-7.162 1.5948-9.5675 1.9236-11.736 1.6041-16.197 3.4754-12.164 5.1025 0.98553 0.39767 0.56896 0.43237 8.8841-0.73999zm274.73 376.68c0-1.9047 6.3973-4.9257 13.916-6.5713 5.69-1.2454 5.2194-1.1884 5.2194-0.6327 0 0.61232-4.8859 2.3008-6.6482 2.2976-1.6058-0.003-6.9202 2.3537-9.5824 4.2493-1.8372 1.3082-2.9045 1.5497-2.9045 0.65715zm-23.418-3.6184c0.1549-0.80979 0.86275-1.0849 3.4688-1.3481 3.532-0.35682 5.7649-0.98846 14.19-4.0149 4.7828-1.7181 7.5818-3.1304 14.917-7.5265 1.3084-0.78417 1.7751-0.873 1.7703-0.33678-0.004 0.40038-1.5412 1.562-3.417 2.5813s-4.3946 2.5067-5.5973 3.3052c-1.2028 0.79854-4.032 2.0349-6.2872 2.7474-2.2552 0.71255-4.7607 1.7521-5.5677 2.3101-3.636 2.5141-13.852 4.2442-13.476 2.2824zm-25.135-5.7197c0.13785-0.42068 1.641-1.2635 3.3403-1.8729s3.3906-1.409 3.7584-1.7768c0.84112-0.8411 2.2507-0.87679 1.9751-0.0499-0.41948 1.2585-4.6064 3.7316-6.9282 4.0923-1.9207 0.29851-2.3465 0.22051-2.1456-0.39257zm10.81-0.24129c-1.2241-1.4749 0.27058-2.1536 5.0454-2.291 4.5915-0.13194 10.956-1.6879 16.569-4.0501 3.062-1.2887 11.916-4.2967 12.647-4.2967 1.447 0 0.46518 1.3522-1.2096 1.6658-0.87821 0.16437-2.485 0.70701-3.5706 1.2056-1.0857 0.49857-2.6446 1.0282-3.4644 1.1768-0.81971 0.1487-1.7766 0.48716-2.1264 0.75228-0.86527 0.65573-9.3144 3.9469-10.133 3.9469-0.36087 0-1.201 0.355-1.867 0.78917-2.5422 1.6568-10.796 2.4211-11.891 1.1012zm-130.1-107.28c-3.1015-0.23348-6.6187-1.3273-6.3756-1.9828 0.12377-0.33372 0.5633-0.51702 0.97676-0.40737 4.0088 1.0632 13.659 0.94623 16.47-0.19973 0.99168-0.40423 1.2357 0.11175 0.53834 1.1384-0.44561 0.65607-8.6122 1.6771-11.609 1.4514zm-4.0841-10.491c-0.36935-0.59762 2.9888-1.15 6.4076-1.054 2.257 0.0634 3.7948 0.9328 1.9135 1.0818-4.6622 0.36923-8.0828 0.35781-8.3211-0.0277zm5.7242-8.5654c0-0.41528 0.47154-0.75507 1.0479-0.75507 0.57633 0 1.1374-0.26876 1.247-0.59724 0.10949-0.32846 1.0526-0.66386 2.0957-0.7453 1.0432-0.0815 2.6962-0.3355 3.6735-0.56454 3.9225-0.91937 1.4536 0.63415-3.1447 1.9788-3.8546 1.1272-4.9193 1.275-4.9193 0.6834zm-78.18-71.37c0-1.321 0.6652-3.793 1.5815-5.8772 0.86982-1.9785 1.856-4.6169 2.1915-5.8631 0.65039-2.4157 7.1918-9.1715 13.57-14.015 1.6715-1.2692 3.6195-2.7587 4.3289-3.31 0.70937-0.55128 1.5501-0.91553 1.8684-0.80944 1.112 0.37067-2.6224 4.5657-6.2325 7.0012-2.0021 1.3507-3.6402 2.6351-3.6402 2.8542 0 0.21908-1.0872 1.5656-2.4159 2.9922-1.3288 1.4266-3.0773 4.0786-3.8856 5.8932-0.80833 1.8146-2.2429 4.8626-3.1879 6.7732-3.811 7.705-4.1784 8.0885-4.1784 4.3604zm335.14-15.647c0-0.8389 0.37687-2.9722 0.8375-4.7407 0.83381-3.2012 0.60951-4.0844-1.0446-4.1132-1.2831-0.0222 3.1122-18.677 4.8044-20.391 0.36193-0.36637 0.82073-1.0967 1.02-1.6229 0.19937-0.52621 0.76533-0.95675 1.258-0.95675 0.64111 0 0.78191 0.27197 0.4954 0.95675-0.22015 0.52621-0.596 1.8178-0.83509 2.8702-0.2391 1.0524-0.92993 3.4203-1.5352 5.262-1.8315 5.5731-2.9672 13.883-1.3218 9.6721 0.69593-1.7811 4.7597-7.8168 5.2664-7.822 0.57755-0.006-0.0875 3.8945-0.78676 4.615-0.27737 0.28568-0.50418 0.96994-0.50418 1.5206 0 0.55069-0.34152 1.1324-0.75921 1.2926-0.89489 0.34341-2.0771 3.4008-3.3451 8.6511-1.5218 6.301-3.5497 9.0467-3.5497 4.806zm-62.13-14.15c-0.20192-0.80442-0.36302-2.219-0.35828-3.1436 0.004-0.92457-0.2001-3.8952-0.45538-6.6015-1.0455-11.084-1.1557-21.869-0.24566-24.047 0.47236-1.1305 0.85886-2.5175 0.85886-3.0821 0-1.976 1.7973-0.72328 5.1942 3.6204 1.1757 1.5035 3.6491 4.4557 5.4963 6.5606 3.5431 4.0372 6.2576 8.2536 6.2576 9.72 0 1.6156-1.2027 1.6416-2.5011 0.0539-0.71207-0.87069-1.2954-1.2384-1.3062-0.82353-0.0255 0.95995-5.3528 10.213-6.3631 11.051-1.2499 1.0374-0.89469-0.0542 1.6977-5.2162 1.3524-2.6928 2.4589-5.3453 2.4589-5.8943 0-0.54904 0.36903-1.1399 0.82007-1.3129 1.2104-0.46447 0.99911-1.233-0.53053-1.93-1.0306-0.46959-1.5471-0.45232-2.1799 0.0729-0.4561 0.37855-1.2433 0.5294-1.7493 0.33521-1.1615-0.44571-1.8084 0.55059-1.8191 2.8019-0.0109 2.2991-1.0176 4.4357-2.2782 4.8358-0.55575 0.17638-1.0311 0.73467-1.0563 1.2406-0.0255 0.50595-0.16037 2.15-0.30069 3.6535-0.13996 1.5035 0.0146 3.8021 0.34006 5.108 0.32693 1.3059 0.44575 2.8436 0.26388 3.417-0.48344 1.5231-1.8186 1.2732-2.2436-0.42005zm3.3044-22.056c0.89698-2.7423 0.45162-5.3935-0.77834-4.6333-0.43595 0.26942-0.70737 7.3763-0.28174 7.3763 0.0897 0 0.56662-1.2344 1.0601-2.743zm-279.6 20.76c0-1.059 6.4082-6.3237 6.9895-5.7423 0.21402 0.21403-0.34847 0.91414-1.25 1.5558-0.90153 0.64167-2.4633 1.9747-3.4706 2.9624-1.9812 1.9426-2.2689 2.0977-2.2689 1.2242zm338.93-11.654c0.56217-1.3116 1.2853-2.8492 1.6069-3.417 2.8658-5.0592 2.8757-9.2259 0.0405-17.065-0.46988-1.2993-0.48945-1.9864-0.0685-2.4073 0.40023-0.40023 0.41445-0.91529 0.0445-1.6068-0.40869-0.76365-0.34042-1.0961 0.27263-1.3315 1.1388-0.43698 2.0467 0.2431 1.8528 1.3878-0.0897 0.52855 0.16328 1.3541 0.56216 1.8346 3.4058 4.1037 2.6888 13.742-1.4895 20.023-1.083 1.628-2.2119 3.4117-2.5088 3.9637-1.0731 1.9956-1.3106 0.94685-0.31272-1.381z"/>
</svg>
