<?xml version="1.0" encoding="UTF-8" standalone="no"?>
<!-- Created with Inkscape (http://www.inkscape.org/) -->

<svg
   xmlns:dc="http://purl.org/dc/elements/1.1/"
   xmlns:cc="http://creativecommons.org/ns#"
   xmlns:rdf="http://www.w3.org/1999/02/22-rdf-syntax-ns#"
   xmlns:svg="http://www.w3.org/2000/svg"
   xmlns="http://www.w3.org/2000/svg"
   xmlns:xlink="http://www.w3.org/1999/xlink"
   xmlns:sodipodi="http://sodipodi.sourceforge.net/DTD/sodipodi-0.dtd"
   xmlns:inkscape="http://www.inkscape.org/namespaces/inkscape"
   width="500"
   height="361.44727"
   id="svg2"
   version="1.1"
   inkscape:version="0.48.5 r10040"
   sodipodi:docname="Nouveau document 1">
  <defs
     id="defs4">
    <linearGradient
       inkscape:collect="always"
       id="linearGradient4352">
      <stop
         style="stop-color:#925228;stop-opacity:1"
         offset="0"
         id="stop4354" />
      <stop
         style="stop-color:#deaa87;stop-opacity:0"
         offset="1"
         id="stop4356" />
    </linearGradient>
    <linearGradient
       inkscape:collect="always"
       id="linearGradient4340">
      <stop
         style="stop-color:#005c00;stop-opacity:1"
         offset="0"
         id="stop4342" />
      <stop
         style="stop-color:#003200;stop-opacity:1"
         offset="1"
         id="stop4344" />
    </linearGradient>
    <linearGradient
       inkscape:collect="always"
       id="linearGradient4332">
      <stop
         style="stop-color:#472e26;stop-opacity:1;"
         offset="0"
         id="stop4334" />
      <stop
         style="stop-color:#37241e;stop-opacity:1"
         offset="1"
         id="stop4336" />
    </linearGradient>
    <linearGradient
       inkscape:collect="always"
       id="linearGradient4324">
      <stop
         style="stop-color:#3a3a33;stop-opacity:1;"
         offset="0"
         id="stop4326" />
      <stop
         style="stop-color:#292924;stop-opacity:1"
         offset="1"
         id="stop4328" />
    </linearGradient>
    <linearGradient
       inkscape:collect="always"
       id="linearGradient4316">
      <stop
         style="stop-color:#cfbfae;stop-opacity:1;"
         offset="0"
         id="stop4318" />
      <stop
         style="stop-color:#604d39;stop-opacity:1"
         offset="1"
         id="stop4320" />
    </linearGradient>
    <linearGradient
       inkscape:collect="always"
       id="linearGradient4308">
      <stop
         style="stop-color:#ccb956;stop-opacity:1;"
         offset="0"
         id="stop4310" />
      <stop
         style="stop-color:#706322;stop-opacity:1"
         offset="1"
         id="stop4312" />
    </linearGradient>
    <linearGradient
       inkscape:collect="always"
       id="linearGradient4300">
      <stop
         style="stop-color:#c9584c;stop-opacity:1;"
         offset="0"
         id="stop4302" />
      <stop
         style="stop-color:#56201a;stop-opacity:1"
         offset="1"
         id="stop4304" />
    </linearGradient>
    <linearGradient
       inkscape:collect="always"
       id="linearGradient4292">
      <stop
         style="stop-color:#395ebd;stop-opacity:1"
         offset="0"
         id="stop4294" />
      <stop
         style="stop-color:#07233d;stop-opacity:1"
         offset="1"
         id="stop4296" />
    </linearGradient>
    <linearGradient
       inkscape:collect="always"
       id="linearGradient4284">
      <stop
         style="stop-color:#81513e;stop-opacity:1;"
         offset="0"
         id="stop4286" />
      <stop
         style="stop-color:#3f281e;stop-opacity:1"
         offset="1"
         id="stop4288" />
    </linearGradient>
    <linearGradient
       inkscape:collect="always"
       id="linearGradient4276">
      <stop
         style="stop-color:#c5574b;stop-opacity:1;"
         offset="0"
         id="stop4278" />
      <stop
         style="stop-color:#4f1f1a;stop-opacity:1"
         offset="1"
         id="stop4280" />
    </linearGradient>
    <linearGradient
       inkscape:collect="always"
       id="linearGradient4268">
      <stop
         style="stop-color:#342c29;stop-opacity:1;"
         offset="0"
         id="stop4270" />
      <stop
         style="stop-color:#211c1a;stop-opacity:1"
         offset="1"
         id="stop4272" />
    </linearGradient>
    <linearGradient
       inkscape:collect="always"
       id="linearGradient4260">
      <stop
         style="stop-color:#4c7b57;stop-opacity:1;"
         offset="0"
         id="stop4262" />
      <stop
         style="stop-color:#27402d;stop-opacity:1"
         offset="1"
         id="stop4264" />
    </linearGradient>
    <linearGradient
       inkscape:collect="always"
       id="linearGradient3456">
      <stop
         style="stop-color:#aa7556;stop-opacity:1"
         offset="0"
         id="stop3458" />
      <stop
         style="stop-color:#7a4d3b;stop-opacity:1"
         offset="1"
         id="stop3460" />
    </linearGradient>
    <filter
       inkscape:collect="always"
       id="filter4165"
       color-interpolation-filters="sRGB">
      <feGaussianBlur
         inkscape:collect="always"
         stdDeviation="0.72198618"
         id="feGaussianBlur4167" />
    </filter>
    <linearGradient
       inkscape:collect="always"
       y2="190.89999"
       x2="375.04001"
       gradientTransform="translate(-477.51,501.33)"
       y1="188.02"
       gradientUnits="userSpaceOnUse"
       x1="372.26999"
       id="linearGradient3562">
      <stop
         offset="0"
         style="stop-color:#000000;stop-opacity:0"
         id="stop4077" />
      <stop
         offset=".28701"
         style="stop-color:#ffffff"
         id="stop4153" />
      <stop
         offset="0.553"
         style="stop-color:#b86e17;stop-opacity:.60209"
         id="stop4083" />
      <stop
         offset=".80732"
         style="stop-color:#e9a049"
         id="stop4155" />
      <stop
         offset="1"
         style="stop-color:#000000;stop-opacity:0"
         id="stop4079" />
    </linearGradient>
    <linearGradient
       id="linearGradient16134">
      <stop
         offset="0"
         style="stop-color:#9d9d9d"
         id="stop16136" />
      <stop
         offset=".46938"
         style="stop-color:#aeaeae"
         id="stop16146" />
      <stop
         offset=".59982"
         style="stop-color:#d3d3d3"
         id="stop16142" />
      <stop
         offset=".76320"
         style="stop-color:#999999"
         id="stop16148" />
      <stop
         offset="1"
         style="stop-color:#9e9e9e"
         id="stop16138" />
    </linearGradient>
    <linearGradient
       inkscape:collect="always"
       y2="796.96997"
       x2="252.92"
       gradientTransform="matrix(0.4471,-0.43614,0.46038,0.4491,-584.29,451.84)"
       y1="784.85999"
       gradientUnits="userSpaceOnUse"
       x1="252.92"
       id="linearGradient3556">
      <stop
         offset="0"
         style="stop-color:#e79637"
         id="stop3719" />
      <stop
         offset=".46938"
         style="stop-color:#eaa24f"
         id="stop3721" />
      <stop
         offset=".59982"
         style="stop-color:#f0ba7a"
         id="stop3723" />
      <stop
         offset=".76320"
         style="stop-color:#cb7919"
         id="stop3725" />
      <stop
         offset="1"
         style="stop-color:#e2871b"
         id="stop3727" />
    </linearGradient>
    <filter
       inkscape:collect="always"
       id="filter4296"
       color-interpolation-filters="sRGB">
      <feGaussianBlur
         inkscape:collect="always"
         stdDeviation="0.81706803"
         id="feGaussianBlur4298" />
    </filter>
    <linearGradient
       inkscape:collect="always"
       xlink:href="#linearGradient3556"
       id="linearGradient3298"
       gradientUnits="userSpaceOnUse"
       gradientTransform="matrix(0.4471,-0.43614,0.46038,0.4491,-584.29,451.84)"
       x1="252.92"
       y1="784.85999"
       x2="252.92"
       y2="796.96997" />
    <linearGradient
       inkscape:collect="always"
       xlink:href="#linearGradient16134"
       id="linearGradient3300"
       gradientUnits="userSpaceOnUse"
       gradientTransform="matrix(0.44769,-0.43672,0.4613,0.44999,-567.68,885.41)"
       x1="804.42999"
       y1="286.01001"
       x2="804.37"
       y2="293.66" />
    <linearGradient
       inkscape:collect="always"
       xlink:href="#linearGradient16134"
       id="linearGradient3302"
       gradientUnits="userSpaceOnUse"
       gradientTransform="matrix(0.49526,-0.48312,0.46995,0.45843,-668.19,978.57)"
       x1="804.42999"
       y1="286.01001"
       x2="804.37"
       y2="293.66" />
    <linearGradient
       inkscape:collect="always"
       xlink:href="#linearGradient3562"
       id="linearGradient3304"
       gradientUnits="userSpaceOnUse"
       gradientTransform="translate(-477.51,501.33)"
       x1="372.26999"
       y1="188.02"
       x2="375.04001"
       y2="190.89999" />
    <linearGradient
       inkscape:collect="always"
       xlink:href="#linearGradient3556"
       id="linearGradient3348"
       gradientUnits="userSpaceOnUse"
       gradientTransform="matrix(0.4471,-0.43614,0.46038,0.4491,-584.29,451.84)"
       x1="252.92"
       y1="784.85999"
       x2="252.92"
       y2="796.96997" />
    <linearGradient
       inkscape:collect="always"
       xlink:href="#linearGradient16134"
       id="linearGradient3350"
       gradientUnits="userSpaceOnUse"
       gradientTransform="matrix(0.44769,-0.43672,0.4613,0.44999,-567.68,885.41)"
       x1="804.42999"
       y1="286.01001"
       x2="804.37"
       y2="293.66" />
    <linearGradient
       inkscape:collect="always"
       xlink:href="#linearGradient16134"
       id="linearGradient3352"
       gradientUnits="userSpaceOnUse"
       gradientTransform="matrix(0.49526,-0.48312,0.46995,0.45843,-668.19,978.57)"
       x1="804.42999"
       y1="286.01001"
       x2="804.37"
       y2="293.66" />
    <linearGradient
       inkscape:collect="always"
       xlink:href="#linearGradient3562"
       id="linearGradient3354"
       gradientUnits="userSpaceOnUse"
       gradientTransform="translate(-477.51,501.33)"
       x1="372.26999"
       y1="188.02"
       x2="375.04001"
       y2="190.89999" />
    <linearGradient
       inkscape:collect="always"
       xlink:href="#linearGradient3456"
       id="linearGradient3462"
       x1="739.43164"
       y1="232.11832"
       x2="268.70059"
       y2="935.18451"
       gradientUnits="userSpaceOnUse" />
    <radialGradient
       inkscape:collect="always"
       xlink:href="#linearGradient4260"
       id="radialGradient4266"
       cx="211.48114"
       cy="812.67035"
       fx="211.48114"
       fy="812.67035"
       r="73.212227"
       gradientTransform="matrix(2.3514089,-1.6336732e-7,1.29505e-7,1.8640153,-253.47271,-694.07837)"
       gradientUnits="userSpaceOnUse" />
    <radialGradient
       inkscape:collect="always"
       xlink:href="#linearGradient4268"
       id="radialGradient4274"
       cx="91.080643"
       cy="663.7984"
       fx="91.080643"
       fy="663.7984"
       r="76.076988"
       gradientTransform="matrix(2.0503083,-2.91776e-8,1.6388796e-8,1.1516398,-97.683065,-52.170912)"
       gradientUnits="userSpaceOnUse" />
    <radialGradient
       inkscape:collect="always"
       xlink:href="#linearGradient4276"
       id="radialGradient4282"
       cx="126.11601"
       cy="537.59753"
       fx="126.11601"
       fy="537.59753"
       r="50.867912"
       gradientTransform="matrix(3.6214204,0,0,2.9022007,-336.664,-994.33403)"
       gradientUnits="userSpaceOnUse" />
    <radialGradient
       inkscape:collect="always"
       xlink:href="#linearGradient4284"
       id="radialGradient4290"
       cx="269.94815"
       cy="366.50302"
       fx="269.94815"
       fy="366.50302"
       r="45.434731"
       gradientTransform="matrix(2.1337775,0.08139579,-0.0576646,1.511668,-284.92689,-209.50053)"
       gradientUnits="userSpaceOnUse" />
    <radialGradient
       inkscape:collect="always"
       xlink:href="#linearGradient4292"
       id="radialGradient4298"
       cx="376.35733"
       cy="293.41122"
       fx="376.35733"
       fy="293.41122"
       r="51.434158"
       gradientTransform="matrix(3.160559,-0.01855801,0.00622322,1.0598602,-814.96815,-10.579208)"
       gradientUnits="userSpaceOnUse" />
    <radialGradient
       inkscape:collect="always"
       xlink:href="#linearGradient4300"
       id="radialGradient4306"
       cx="757.31006"
       cy="580.68445"
       fx="757.31006"
       fy="580.68445"
       r="71.499641"
       gradientTransform="matrix(2.3648988,-5.7077621e-7,4.1123885e-7,1.7038872,-1033.6519,-408.73595)"
       gradientUnits="userSpaceOnUse" />
    <radialGradient
       inkscape:collect="always"
       xlink:href="#linearGradient4308"
       id="radialGradient4314"
       cx="877.12036"
       cy="420.05679"
       fx="877.12036"
       fy="420.05679"
       r="57.290901"
       gradientTransform="matrix(2.1316059,-2.4490042e-7,1.8350401e-7,1.5972134,-998.61556,-222.57904)"
       gradientUnits="userSpaceOnUse" />
    <radialGradient
       inkscape:collect="always"
       xlink:href="#linearGradient4316"
       id="radialGradient4322"
       cx="928.06909"
       cy="317.69482"
       fx="928.06909"
       fy="317.69482"
       r="48.359505"
       gradientTransform="matrix(2.5524679,0,0,2.1291157,-1437.7611,-356.54616)"
       gradientUnits="userSpaceOnUse" />
    <radialGradient
       inkscape:collect="always"
       xlink:href="#linearGradient4324"
       id="radialGradient4330"
       cx="872.1875"
       cy="233.04945"
       fx="872.1875"
       fy="233.04945"
       r="36.131989"
       gradientTransform="matrix(2.3620592,-2.5319346e-7,2.0729837e-7,1.9339007,-1259.2139,-195.6245)"
       gradientUnits="userSpaceOnUse" />
    <radialGradient
       inkscape:collect="always"
       xlink:href="#linearGradient4332"
       id="radialGradient4338"
       cx="554.57544"
       cy="737.61755"
       fx="554.57544"
       fy="737.61755"
       r="76.257851"
       gradientTransform="matrix(1.7711984,-3.0652706e-8,1.952624e-8,1.1282803,-427.68765,-94.621753)"
       gradientUnits="userSpaceOnUse" />
    <radialGradient
       inkscape:collect="always"
       xlink:href="#linearGradient4340"
       id="radialGradient4348"
       cx="189.88535"
       cy="450.92615"
       fx="189.88535"
       fy="450.92615"
       r="59.344151"
       gradientTransform="matrix(1.240785,-9.8271365e-8,8.530174e-8,1.0770291,-45.721573,-34.734408)"
       gradientUnits="userSpaceOnUse" />
    <radialGradient
       inkscape:collect="always"
       xlink:href="#linearGradient4352"
       id="radialGradient4358"
       cx="351.26431"
       cy="455.67578"
       fx="351.26431"
       fy="455.67578"
       r="561.79431"
       gradientTransform="matrix(0.78283252,-0.48413644,0.33400604,0.54007661,-17.19108,481.85992)"
       gradientUnits="userSpaceOnUse" />
    <linearGradient
       inkscape:collect="always"
       xlink:href="#linearGradient3456"
       id="linearGradient4417"
       gradientUnits="userSpaceOnUse"
       x1="739.43164"
       y1="232.11832"
       x2="268.70059"
       y2="935.18451" />
    <radialGradient
       inkscape:collect="always"
       xlink:href="#linearGradient4352"
       id="radialGradient4419"
       gradientUnits="userSpaceOnUse"
       gradientTransform="matrix(0.78283252,-0.48413644,0.33400604,0.54007661,-17.19108,481.85992)"
       cx="351.26431"
       cy="455.67578"
       fx="351.26431"
       fy="455.67578"
       r="561.79431" />
    <linearGradient
       inkscape:collect="always"
       xlink:href="#linearGradient3556"
       id="linearGradient4421"
       gradientUnits="userSpaceOnUse"
       gradientTransform="matrix(0.4471,-0.43614,0.46038,0.4491,-584.29,451.84)"
       x1="252.92"
       y1="784.85999"
       x2="252.92"
       y2="796.96997" />
    <linearGradient
       inkscape:collect="always"
       xlink:href="#linearGradient16134"
       id="linearGradient4423"
       gradientUnits="userSpaceOnUse"
       gradientTransform="matrix(0.44769,-0.43672,0.4613,0.44999,-567.68,885.41)"
       x1="804.42999"
       y1="286.01001"
       x2="804.37"
       y2="293.66" />
    <linearGradient
       inkscape:collect="always"
       xlink:href="#linearGradient16134"
       id="linearGradient4425"
       gradientUnits="userSpaceOnUse"
       gradientTransform="matrix(0.49526,-0.48312,0.46995,0.45843,-668.19,978.57)"
       x1="804.42999"
       y1="286.01001"
       x2="804.37"
       y2="293.66" />
    <linearGradient
       inkscape:collect="always"
       xlink:href="#linearGradient3562"
       id="linearGradient4427"
       gradientUnits="userSpaceOnUse"
       gradientTransform="translate(-477.51,501.33)"
       x1="372.26999"
       y1="188.02"
       x2="375.04001"
       y2="190.89999" />
    <linearGradient
       inkscape:collect="always"
       xlink:href="#linearGradient3556"
       id="linearGradient4429"
       gradientUnits="userSpaceOnUse"
       gradientTransform="matrix(0.4471,-0.43614,0.46038,0.4491,-584.29,451.84)"
       x1="252.92"
       y1="784.85999"
       x2="252.92"
       y2="796.96997" />
    <linearGradient
       inkscape:collect="always"
       xlink:href="#linearGradient16134"
       id="linearGradient4431"
       gradientUnits="userSpaceOnUse"
       gradientTransform="matrix(0.44769,-0.43672,0.4613,0.44999,-567.68,885.41)"
       x1="804.42999"
       y1="286.01001"
       x2="804.37"
       y2="293.66" />
    <linearGradient
       inkscape:collect="always"
       xlink:href="#linearGradient16134"
       id="linearGradient4433"
       gradientUnits="userSpaceOnUse"
       gradientTransform="matrix(0.49526,-0.48312,0.46995,0.45843,-668.19,978.57)"
       x1="804.42999"
       y1="286.01001"
       x2="804.37"
       y2="293.66" />
    <linearGradient
       inkscape:collect="always"
       xlink:href="#linearGradient3562"
       id="linearGradient4435"
       gradientUnits="userSpaceOnUse"
       gradientTransform="translate(-477.51,501.33)"
       x1="372.26999"
       y1="188.02"
       x2="375.04001"
       y2="190.89999" />
    <radialGradient
       inkscape:collect="always"
       xlink:href="#linearGradient4292"
       id="radialGradient4437"
       gradientUnits="userSpaceOnUse"
       gradientTransform="matrix(3.160559,-0.01855801,0.00622322,1.0598602,-814.96815,-10.579208)"
       cx="376.35733"
       cy="293.41122"
       fx="376.35733"
       fy="293.41122"
       r="51.434158" />
    <radialGradient
       inkscape:collect="always"
       xlink:href="#linearGradient4300"
       id="radialGradient4439"
       gradientUnits="userSpaceOnUse"
       gradientTransform="matrix(2.3648988,-5.7077621e-7,4.1123885e-7,1.7038872,-1033.6519,-408.73595)"
       cx="757.31006"
       cy="580.68445"
       fx="757.31006"
       fy="580.68445"
       r="71.499641" />
    <radialGradient
       inkscape:collect="always"
       xlink:href="#linearGradient4308"
       id="radialGradient4441"
       gradientUnits="userSpaceOnUse"
       gradientTransform="matrix(2.1316059,-2.4490042e-7,1.8350401e-7,1.5972134,-998.61556,-222.57904)"
       cx="877.12036"
       cy="420.05679"
       fx="877.12036"
       fy="420.05679"
       r="57.290901" />
    <radialGradient
       inkscape:collect="always"
       xlink:href="#linearGradient4316"
       id="radialGradient4443"
       gradientUnits="userSpaceOnUse"
       gradientTransform="matrix(2.5524679,0,0,2.1291157,-1437.7611,-356.54616)"
       cx="928.06909"
       cy="317.69482"
       fx="928.06909"
       fy="317.69482"
       r="48.359505" />
    <radialGradient
       inkscape:collect="always"
       xlink:href="#linearGradient4324"
       id="radialGradient4445"
       gradientUnits="userSpaceOnUse"
       gradientTransform="matrix(2.3620592,-2.5319346e-7,2.0729837e-7,1.9339007,-1259.2139,-195.6245)"
       cx="872.1875"
       cy="233.04945"
       fx="872.1875"
       fy="233.04945"
       r="36.131989" />
    <radialGradient
       inkscape:collect="always"
       xlink:href="#linearGradient4340"
       id="radialGradient4447"
       gradientUnits="userSpaceOnUse"
       gradientTransform="matrix(1.240785,-9.8271365e-8,8.530174e-8,1.0770291,-45.721573,-34.734408)"
       cx="189.88535"
       cy="450.92615"
       fx="189.88535"
       fy="450.92615"
       r="59.344151" />
    <radialGradient
       inkscape:collect="always"
       xlink:href="#linearGradient4276"
       id="radialGradient4449"
       gradientUnits="userSpaceOnUse"
       gradientTransform="matrix(3.6214204,0,0,2.9022007,-336.664,-994.33403)"
       cx="126.11601"
       cy="537.59753"
       fx="126.11601"
       fy="537.59753"
       r="50.867912" />
    <radialGradient
       inkscape:collect="always"
       xlink:href="#linearGradient4268"
       id="radialGradient4451"
       gradientUnits="userSpaceOnUse"
       gradientTransform="matrix(2.0503083,-2.91776e-8,1.6388796e-8,1.1516398,-97.683065,-52.170912)"
       cx="91.080643"
       cy="663.7984"
       fx="91.080643"
       fy="663.7984"
       r="76.076988" />
    <radialGradient
       inkscape:collect="always"
       xlink:href="#linearGradient4332"
       id="radialGradient4453"
       gradientUnits="userSpaceOnUse"
       gradientTransform="matrix(1.7711984,-3.0652706e-8,1.952624e-8,1.1282803,-427.68765,-94.621753)"
       cx="554.57544"
       cy="737.61755"
       fx="554.57544"
       fy="737.61755"
       r="76.257851" />
    <radialGradient
       inkscape:collect="always"
       xlink:href="#linearGradient4260"
       id="radialGradient4455"
       gradientUnits="userSpaceOnUse"
       gradientTransform="matrix(2.3514089,-1.6336732e-7,1.29505e-7,1.8640153,-253.47271,-694.07837)"
       cx="211.48114"
       cy="812.67035"
       fx="211.48114"
       fy="812.67035"
       r="73.212227" />
    <radialGradient
       inkscape:collect="always"
       xlink:href="#linearGradient4284"
       id="radialGradient4457"
       gradientUnits="userSpaceOnUse"
       gradientTransform="matrix(2.1337775,0.08139579,-0.0576646,1.511668,-284.92689,-209.50053)"
       cx="269.94815"
       cy="366.50302"
       fx="269.94815"
       fy="366.50302"
       r="45.434731" />
  </defs>
  <sodipodi:namedview
     id="base"
     pagecolor="#ffffff"
     bordercolor="#666666"
     borderopacity="1.0"
     inkscape:pageopacity="0.0"
     inkscape:pageshadow="2"
     inkscape:zoom="0.49497475"
     inkscape:cx="1192.3867"
     inkscape:cy="273.48928"
     inkscape:document-units="px"
     inkscape:current-layer="layer1"
     showgrid="false"
     fit-margin-top="0"
     fit-margin-left="0"
     fit-margin-right="0"
     fit-margin-bottom="0"
     inkscape:window-width="1920"
     inkscape:window-height="1005"
     inkscape:window-x="-9"
     inkscape:window-y="-9"
     inkscape:window-maximized="1" />
  <metadata
     id="metadata7">
    <rdf:RDF>
      <cc:Work
         rdf:about="">
        <dc:format>image/svg+xml</dc:format>
        <dc:type
           rdf:resource="http://purl.org/dc/dcmitype/StillImage" />
        <dc:title></dc:title>
      </cc:Work>
    </rdf:RDF>
  </metadata>
  <g
     inkscape:label="Calque 1"
     inkscape:groupmode="layer"
     id="layer1"
     transform="translate(3.3621271e-7,-690.91493)">
    <g
       id="g4360"
       transform="matrix(0.44500271,0,0,0.44500271,26.788665,611.10901)">
      <path
         id="path2996"
         d="m 823.625,179.34375 c -67.04444,0.48978 -121.30903,32.4453 -142.1875,81.59375 -41.6136,97.95947 -156.76046,38.39307 -182.875,14.28125 -39.32694,-36.31096 -91.51301,-41.00129 -152.84375,-18.5625 -83.74723,30.64021 -221.98186,139.32875 -298.5625,234.28125 -159.6244,197.91863 -137.093497,344.88002 40,447.125 C 311.51796,1067.5978 700.21287,951.13148 930,705.21875 1090.4236,533.53718 1111.9538,311.85856 962.84375,220.9375 914.82166,191.65565 866.6022,179.02979 823.625,179.34375 z M 567.25,382.1875 c 20.45727,-0.1014 35.3125,11.16555 35.3125,28.84375 0,21.75778 -22.49488,45.0013 -50.25,51.90625 -27.75512,6.90495 -50.28125,-5.14847 -50.28125,-26.90625 0,-21.75778 22.52613,-44.97005 50.28125,-51.875 5.20408,-1.29468 10.21659,-1.94535 14.9375,-1.96875 z"
         style="color:#000000;fill:url(#linearGradient4417);fill-opacity:1;stroke:none;stroke-width:1;marker:none;visibility:visible;display:inline;overflow:visible;enable-background:accumulate"
         inkscape:connector-curvature="0" />
      <path
         style="color:#000000;fill:url(#radialGradient4419);fill-opacity:1;stroke:none;stroke-width:1;marker:none;visibility:visible;display:inline;overflow:visible;enable-background:accumulate"
         d="m 823.625,179.34375 c -67.04444,0.48978 -121.30903,32.4453 -142.1875,81.59375 -41.6136,97.95947 -156.76046,38.39307 -182.875,14.28125 -39.32694,-36.31096 -91.51301,-41.00129 -152.84375,-18.5625 -83.74723,30.64021 -221.98186,139.32875 -298.5625,234.28125 -159.6244,197.91863 -137.093497,344.88002 40,447.125 C 311.51796,1067.5978 700.21287,951.13148 930,705.21875 1090.4236,533.53718 1111.9538,311.85856 962.84375,220.9375 914.82166,191.65565 866.6022,179.02979 823.625,179.34375 z M 567.25,382.1875 c 20.45727,-0.1014 35.3125,11.16555 35.3125,28.84375 0,21.75778 -22.49488,45.0013 -50.25,51.90625 -27.75512,6.90495 -50.28125,-5.14847 -50.28125,-26.90625 0,-21.75778 22.52613,-44.97005 50.28125,-51.875 5.20408,-1.29468 10.21659,-1.94535 14.9375,-1.96875 z"
         id="path4350"
         inkscape:connector-curvature="0" />
      <g
         transform="translate(841.42857,-8.5714286)"
         id="g3276">
        <path
           d="m 342.74,223.29 c -1.5826,-1.5801 -1.4209,-1.9806 2.7387,-6.7814 11.718,-13.524 30.3,-31.809 45.983,-45.247 8.045,-6.8936 11.515,-10.137 12.885,-12.044 1.7864,-2.4866 6.0005,-6.58 9.4553,-9.1844 5.0367,-3.7969 10.265,-6.9004 10.772,-6.3941 0.0943,0.0941 -8.7e-4,0.34316 -0.21146,0.5534 -0.21059,0.21024 -0.38289,0.5792 -0.38289,0.81992 0,0.5282 -1.8597,3.3111 -5.1258,7.6705 -2.9369,3.92 -7.8739,8.871 -10.729,10.759 -1.1568,0.76515 -3.0496,2.454 -4.2063,3.753 -19.251,21.618 -32.908,35.221 -50.152,49.954 -9.1,7.7746 -9.286,7.8782 -11.026,6.1409 z"
           style="opacity:0.72774999;fill:#000000;filter:url(#filter4296)"
           id="path3425"
           inkscape:connector-curvature="0"
           transform="matrix(-4.6077094,0,0,-3.6709719,1368.217,1082.4924)" />
        <g
           transform="matrix(-4.6077094,0,0,-3.6709719,-835.58175,2920.0036)"
           id="g3007">
          <path
             d="m -68.892,655.6 c -2.0694,1.9703 -3.8809,4.0867 -5.2722,6.3555 0.46467,1.416 1.4395,2.3344 2.9864,2.6947 7.3302,-4.2776 12.991,-12.599 17.894,-20.209 l -0.08085,0.003 c -5.3505,3.2785 -11.05,6.8931 -15.527,11.155 l 1.8e-5,2e-5 z"
             style="fill:#784421;stroke:#784421;stroke-width:0.30088001"
             sodipodi:nodetypes="ccccccc"
             id="path14566"
             inkscape:connector-curvature="0" />
          <path
             d="m -76.275,663.78 c 0.73544,2.4624 1.9585,2.5464 3.1007,3.0247"
             style="fill:none;stroke:#000000;stroke-width:0.33835px"
             sodipodi:nodetypes="cccc"
             id="path14560"
             inkscape:connector-curvature="0" />
          <path
             d="m -109.87,694 c -7.2868,7.217 -15.787,16.179 -25.769,27.608 -0.4038,0.55268 0.0622,1.8212 0.74465,2.3892 0.58223,0.6519 1.8905,1.148 2.4492,0.72641 37.493,-31.162 48.986,-47.438 59.394,-57.939 -1.373,-0.47644 -2.6882,-1.0582 -3.1939,-3.1156 -7.4008,6.9801 -17.594,14.453 -33.625,30.331 z"
             style="fill:url(#linearGradient4421)"
             sodipodi:nodetypes="ccccccc"
             id="path14548"
             inkscape:connector-curvature="0" />
          <path
             d="m -73.122,666.86 2.1545,-2.1017 c -1.167,-0.50254 -2.4153,-0.61107 -3.2003,-3.1218 l -2.1545,2.1017 c 0.785,2.5108 2.0332,2.6193 3.2003,3.1218 z"
             style="fill:url(#linearGradient4423)"
             sodipodi:nodetypes="ccccc"
             id="use14562"
             inkscape:connector-curvature="0" />
          <g
             transform="matrix(0.44797,-0.437,0.41433,0.40417,-548.3,487.81)"
             style="opacity:0.40079998;fill:none;stroke:#bc8300"
             id="g15904">
            <path
               d="m 329.66,787.85 c 13.276,-3.3572 29.203,-0.10393 43.546,3.2"
               style="fill:none;stroke:#bc8300;stroke-width:0.5"
               sodipodi:nodetypes="cc"
               id="path15906"
               inkscape:connector-curvature="0" />
            <path
               d="m 329.35,788.47 c 13.276,-2.9451 29.517,-0.31259 43.86,2.5858"
               style="fill:none;stroke:#bc8300;stroke-width:0.5"
               sodipodi:nodetypes="cc"
               id="path15908"
               inkscape:connector-curvature="0" />
            <path
               d="m 329.22,788.97 c 13.276,-2.438 29.64,-0.31579 43.983,2.0836"
               style="fill:none;stroke:#bc8300;stroke-width:0.5"
               sodipodi:nodetypes="cc"
               id="path15910"
               inkscape:connector-curvature="0" />
            <path
               d="m 329.12,789.57 c 13.276,-1.8575 29.591,-0.30467 43.934,1.5234"
               style="fill:none;stroke:#bc8300;stroke-width:0.5"
               sodipodi:nodetypes="cc"
               id="path15912"
               inkscape:connector-curvature="0" />
            <path
               d="m 328.98,790.09 c 13.276,-1.2154 29.725,-0.19519 44.068,1.001"
               style="fill:none;stroke:#bc8300;stroke-width:0.5"
               sodipodi:nodetypes="cc"
               id="path15914"
               inkscape:connector-curvature="0" />
            <path
               d="m 328.98,790.57 c 13.276,-0.51951 29.732,0.009 44.074,0.52063"
               style="fill:none;stroke:#bc8300;stroke-width:0.5"
               sodipodi:nodetypes="cc"
               id="path15916"
               inkscape:connector-curvature="0" />
            <path
               d="m 328.96,791.29 c 13.276,0.22455 29.752,0.0276 44.095,-0.19342"
               style="fill:none;stroke:#bc8300;stroke-width:0.5"
               sodipodi:nodetypes="cc"
               id="path15918"
               inkscape:connector-curvature="0" />
            <path
               d="m 328.98,791.9 c 13.276,1.0125 29.725,0.1875 44.068,-0.80895"
               style="fill:none;stroke:#bc8300;stroke-width:0.5"
               sodipodi:nodetypes="cc"
               id="path15920"
               inkscape:connector-curvature="0" />
            <path
               d="m 329.14,792.64 c 13.276,1.8409 29.571,0.27029 43.914,-1.5415"
               style="fill:none;stroke:#bc8300;stroke-width:0.5"
               sodipodi:nodetypes="cc"
               id="path15922"
               inkscape:connector-curvature="0" />
            <path
               d="m 329.42,793.42 c 13.276,2.7071 29.291,0.33839 43.633,-2.3258"
               style="fill:none;stroke:#bc8300;stroke-width:0.5"
               sodipodi:nodetypes="cc"
               id="path15924"
               inkscape:connector-curvature="0" />
            <path
               d="m 329.86,794.42 c 13.276,2.7071 29.098,-0.60816 43.441,-3.2723"
               style="fill:none;stroke:#bc8300;stroke-width:0.5"
               sodipodi:nodetypes="cc"
               id="path16127"
               inkscape:connector-curvature="0" />
          </g>
          <path
             d="m -133.94,719.61 -1.8225,2.058 c -0.96533,1.5108 1.6978,4.1277 3.2544,3.1817 l 2.1115,-1.7826 c -1.2809,-0.0538 -2.9144,-1.851 -3.5435,-3.457 z"
             style="fill:url(#linearGradient4425)"
             sodipodi:nodetypes="ccccc"
             id="path2933"
             inkscape:connector-curvature="0" />
          <path
             d="m -130.85,717.12 c -0.73531,1.5886 0.75103,1.6839 1.3258,1.37 l 50.89,-49.743 c 0.14492,-1.0196 -0.0744,-0.81666 -0.75,-0.6875 -18.691,14.244 -35.768,31.905 -51.466,49.061 z"
             style="fill:url(#linearGradient4427);filter:url(#filter4165)"
             sodipodi:nodetypes="ccccc"
             id="path4055"
             inkscape:connector-curvature="0" />
        </g>
      </g>
      <g
         inkscape:transform-center-y="144.77798"
         inkscape:transform-center-x="86.930403"
         id="g3306"
         transform="matrix(0.93243672,-0.36133332,0.36133332,0.93243672,713.07697,-83.010022)">
        <path
           transform="matrix(-4.6077094,0,0,-3.6709719,1368.217,1082.4924)"
           inkscape:connector-curvature="0"
           id="path3308"
           style="opacity:0.72774999;fill:#000000;filter:url(#filter4296)"
           d="m 342.74,223.29 c -1.5826,-1.5801 -1.4209,-1.9806 2.7387,-6.7814 11.718,-13.524 30.3,-31.809 45.983,-45.247 8.045,-6.8936 11.515,-10.137 12.885,-12.044 1.7864,-2.4866 6.0005,-6.58 9.4553,-9.1844 5.0367,-3.7969 10.265,-6.9004 10.772,-6.3941 0.0943,0.0941 -8.7e-4,0.34316 -0.21146,0.5534 -0.21059,0.21024 -0.38289,0.5792 -0.38289,0.81992 0,0.5282 -1.8597,3.3111 -5.1258,7.6705 -2.9369,3.92 -7.8739,8.871 -10.729,10.759 -1.1568,0.76515 -3.0496,2.454 -4.2063,3.753 -19.251,21.618 -32.908,35.221 -50.152,49.954 -9.1,7.7746 -9.286,7.8782 -11.026,6.1409 z" />
        <g
           id="g3310"
           transform="matrix(-4.6077094,0,0,-3.6709719,-835.58175,2920.0036)">
          <path
             inkscape:connector-curvature="0"
             id="path3312"
             sodipodi:nodetypes="ccccccc"
             style="fill:#784421;stroke:#784421;stroke-width:0.30088001"
             d="m -68.892,655.6 c -2.0694,1.9703 -3.8809,4.0867 -5.2722,6.3555 0.46467,1.416 1.4395,2.3344 2.9864,2.6947 7.3302,-4.2776 12.991,-12.599 17.894,-20.209 l -0.08085,0.003 c -5.3505,3.2785 -11.05,6.8931 -15.527,11.155 l 1.8e-5,2e-5 z" />
          <path
             inkscape:connector-curvature="0"
             id="path3314"
             sodipodi:nodetypes="cccc"
             style="fill:none;stroke:#000000;stroke-width:0.33835px"
             d="m -76.275,663.78 c 0.73544,2.4624 1.9585,2.5464 3.1007,3.0247" />
          <path
             inkscape:connector-curvature="0"
             id="path3316"
             sodipodi:nodetypes="ccccccc"
             style="fill:url(#linearGradient4429)"
             d="m -109.87,694 c -7.2868,7.217 -15.787,16.179 -25.769,27.608 -0.4038,0.55268 0.0622,1.8212 0.74465,2.3892 0.58223,0.6519 1.8905,1.148 2.4492,0.72641 37.493,-31.162 48.986,-47.438 59.394,-57.939 -1.373,-0.47644 -2.6882,-1.0582 -3.1939,-3.1156 -7.4008,6.9801 -17.594,14.453 -33.625,30.331 z" />
          <path
             inkscape:connector-curvature="0"
             id="path3318"
             sodipodi:nodetypes="ccccc"
             style="fill:url(#linearGradient4431)"
             d="m -73.122,666.86 2.1545,-2.1017 c -1.167,-0.50254 -2.4153,-0.61107 -3.2003,-3.1218 l -2.1545,2.1017 c 0.785,2.5108 2.0332,2.6193 3.2003,3.1218 z" />
          <g
             id="g3320"
             style="opacity:0.40079998;fill:none;stroke:#bc8300"
             transform="matrix(0.44797,-0.437,0.41433,0.40417,-548.3,487.81)">
            <path
               inkscape:connector-curvature="0"
               id="path3322"
               sodipodi:nodetypes="cc"
               style="fill:none;stroke:#bc8300;stroke-width:0.5"
               d="m 329.66,787.85 c 13.276,-3.3572 29.203,-0.10393 43.546,3.2" />
            <path
               inkscape:connector-curvature="0"
               id="path3324"
               sodipodi:nodetypes="cc"
               style="fill:none;stroke:#bc8300;stroke-width:0.5"
               d="m 329.35,788.47 c 13.276,-2.9451 29.517,-0.31259 43.86,2.5858" />
            <path
               inkscape:connector-curvature="0"
               id="path3326"
               sodipodi:nodetypes="cc"
               style="fill:none;stroke:#bc8300;stroke-width:0.5"
               d="m 329.22,788.97 c 13.276,-2.438 29.64,-0.31579 43.983,2.0836" />
            <path
               inkscape:connector-curvature="0"
               id="path3328"
               sodipodi:nodetypes="cc"
               style="fill:none;stroke:#bc8300;stroke-width:0.5"
               d="m 329.12,789.57 c 13.276,-1.8575 29.591,-0.30467 43.934,1.5234" />
            <path
               inkscape:connector-curvature="0"
               id="path3330"
               sodipodi:nodetypes="cc"
               style="fill:none;stroke:#bc8300;stroke-width:0.5"
               d="m 328.98,790.09 c 13.276,-1.2154 29.725,-0.19519 44.068,1.001" />
            <path
               inkscape:connector-curvature="0"
               id="path3332"
               sodipodi:nodetypes="cc"
               style="fill:none;stroke:#bc8300;stroke-width:0.5"
               d="m 328.98,790.57 c 13.276,-0.51951 29.732,0.009 44.074,0.52063" />
            <path
               inkscape:connector-curvature="0"
               id="path3334"
               sodipodi:nodetypes="cc"
               style="fill:none;stroke:#bc8300;stroke-width:0.5"
               d="m 328.96,791.29 c 13.276,0.22455 29.752,0.0276 44.095,-0.19342" />
            <path
               inkscape:connector-curvature="0"
               id="path3336"
               sodipodi:nodetypes="cc"
               style="fill:none;stroke:#bc8300;stroke-width:0.5"
               d="m 328.98,791.9 c 13.276,1.0125 29.725,0.1875 44.068,-0.80895" />
            <path
               inkscape:connector-curvature="0"
               id="path3338"
               sodipodi:nodetypes="cc"
               style="fill:none;stroke:#bc8300;stroke-width:0.5"
               d="m 329.14,792.64 c 13.276,1.8409 29.571,0.27029 43.914,-1.5415" />
            <path
               inkscape:connector-curvature="0"
               id="path3340"
               sodipodi:nodetypes="cc"
               style="fill:none;stroke:#bc8300;stroke-width:0.5"
               d="m 329.42,793.42 c 13.276,2.7071 29.291,0.33839 43.633,-2.3258" />
            <path
               inkscape:connector-curvature="0"
               id="path3342"
               sodipodi:nodetypes="cc"
               style="fill:none;stroke:#bc8300;stroke-width:0.5"
               d="m 329.86,794.42 c 13.276,2.7071 29.098,-0.60816 43.441,-3.2723" />
          </g>
          <path
             inkscape:connector-curvature="0"
             id="path3344"
             sodipodi:nodetypes="ccccc"
             style="fill:url(#linearGradient4433)"
             d="m -133.94,719.61 -1.8225,2.058 c -0.96533,1.5108 1.6978,4.1277 3.2544,3.1817 l 2.1115,-1.7826 c -1.2809,-0.0538 -2.9144,-1.851 -3.5435,-3.457 z" />
          <path
             inkscape:connector-curvature="0"
             id="path3346"
             sodipodi:nodetypes="ccccc"
             style="fill:url(#linearGradient4435);filter:url(#filter4165)"
             d="m -130.85,717.12 c -0.73531,1.5886 0.75103,1.6839 1.3258,1.37 l 50.89,-49.743 c 0.14492,-1.0196 -0.0744,-0.81666 -0.75,-0.6875 -18.691,14.244 -35.768,31.905 -51.466,49.061 z" />
        </g>
      </g>
      <path
         sodipodi:nodetypes="sssssss"
         inkscape:connector-curvature="0"
         id="path3356"
         d="M 331.42857,288.79075 C 344.35585,269.71426 355.02954,248.11228 390,270.93361 c 6.23825,4.07101 10.30348,8.16148 24.05393,10.25293 10.72883,1.63185 23.45507,17.62298 2.37464,27.60421 -17.24902,8.16712 -32.15333,1.05375 -36.42857,10.71429 -3.81803,8.62739 -22.33434,7.4292 -38.57143,1.42857 -24.85693,-9.1862 -15.81658,-23.55947 -10,-32.14286 z"
         style="color:#000000;fill:url(#radialGradient4437);fill-opacity:1;stroke:none;stroke-width:1;marker:none;visibility:visible;display:inline;overflow:visible;enable-background:accumulate" />
      <path
         inkscape:connector-curvature="0"
         id="path3358"
         d="m 733.5087,516.58483 c 30.37141,-9.76107 57.03457,12.40502 78.60118,30.58907 26.30154,11.90974 41.13923,38.55986 34.39634,67.00823 -0.40869,31.71779 -30.38016,26.83663 -48.4149,12.70381 -24.54267,-1.86893 -44.05076,27.15713 -69.9301,18.75437 -23.50967,-20.02685 -67.30362,-37.04113 -61.06703,-74.64445 10.07362,-29.78526 44.61819,-36.78289 66.41451,-54.41103 z"
         style="color:#000000;fill:url(#radialGradient4439);fill-opacity:1;stroke:none;stroke-width:1;marker:none;visibility:visible;display:inline;overflow:visible;enable-background:accumulate" />
      <path
         inkscape:connector-curvature="0"
         id="path3360"
         d="m 803.92436,467.98405 c -13.52029,-23.92125 12.60938,-44.9827 29.93341,-57.52853 22.69057,-15.54682 56.19828,-22.62678 78.27062,-2.14827 19.87677,13.52959 41.42497,41.3617 22.51103,64.63951 -14.20139,21.3335 -41.2161,20.51425 -63.54152,24.94322 -21.97862,7.08888 -47.11033,2.47842 -60.9003,-17.05299 -3.00837,-3.72586 -5.53187,-8.04649 -6.27324,-12.85294 z"
         style="color:#000000;fill:url(#radialGradient4441);fill-opacity:1;stroke:none;stroke-width:1;marker:none;visibility:visible;display:inline;overflow:visible;enable-background:accumulate" />
      <path
         inkscape:connector-curvature="0"
         id="path3362"
         d="m 879.72867,290.59059 c -25.23225,2.02723 -9.96345,32.86693 6.70074,29.28202 5.23229,18.04341 11.7739,46.98241 36.76284,34.09789 20.51055,12.52615 58.63187,27.88762 60.80099,-10.48652 8.01507,-29.51773 -10.90907,-52.78046 -34.32541,-66.9688 -15.64435,-22.07965 -47.31437,-19.13121 -53.44387,8.57699 -3.35637,5.65579 -10.36024,8.26031 -16.49529,5.49842 z"
         style="color:#000000;fill:url(#radialGradient4443);fill-opacity:1;stroke:none;stroke-width:1;marker:none;visibility:visible;display:inline;overflow:visible;enable-background:accumulate" />
      <path
         sodipodi:nodetypes="ssccccs"
         inkscape:connector-curvature="0"
         id="path3364"
         d="m 778.98788,228.82058 c -4.41838,2.46941 -17.06448,2.92123 -20.90127,7.38057 -8.78611,10.21173 -6.77553,26.73185 2.30833,39.90058 13.7192,21.40775 45.33469,28.96455 67.59161,17.16463 13.71803,-7.60822 21.29347,-25.06976 15.07407,-39.93884 -6.89566,-15.68062 -19.44985,-29.6977 -30.68541,-41.82366 -13.8725,-2.11999 -22.36509,11.15645 -33.38733,17.31672 z"
         style="color:#000000;fill:url(#radialGradient4445);fill-opacity:1;stroke:none;stroke-width:1;marker:none;visibility:visible;display:inline;overflow:visible;enable-background:accumulate" />
      <path
         inkscape:connector-curvature="0"
         id="path3366"
         d="m 195.18839,407.8945 c 18.55835,-4.00384 36.36078,6.18885 43.04887,23.53781 14.60787,10.73376 16.29936,33.69796 -5.01549,36.96111 -17.12971,5.13486 -16.07924,33.45108 -38.73203,24.80036 -17.92385,-7.84598 -38.7359,-1.28516 -55.8185,-10.76938 -10.80899,-12.3238 -9.13911,-33.83557 -4.72565,-48.89798 12.78657,-20.44273 39.7778,-15.03119 58.88811,-24.74521 l 2.35469,-0.88671 0,0 z"
         style="color:#000000;fill:url(#radialGradient4447);fill-opacity:1;stroke:none;stroke-width:1;marker:none;visibility:visible;display:inline;overflow:visible;enable-background:accumulate" />
      <path
         sodipodi:nodetypes="scccccs"
         inkscape:connector-curvature="0"
         id="path3368"
         d="m 74.906102,526.90917 c 11.935748,-27.96174 57.198628,3.97205 85.409198,-3.05959 22.99834,1.90276 37.88316,28.55884 26.27417,48.89088 -7.57711,21.54902 -32.71658,17.03062 -49.58013,24.77953 -20.13993,6.00543 -39.547815,14.16217 -59.992208,18.7081 -25.392272,3.83943 -33.484678,-28.81258 -23.173445,-46.84714 2.530084,-12.80764 13.188208,-24.02497 21.062415,-42.47178 z"
         style="color:#000000;fill:url(#radialGradient4449);fill-opacity:1;stroke:none;stroke-width:1;marker:none;visibility:visible;display:inline;overflow:visible;enable-background:accumulate" />
      <path
         inkscape:connector-curvature="0"
         id="path3370"
         d="m 77.540184,650.89443 c 23.794166,-2.9884 50.217766,0.60696 62.671706,23.51673 16.72614,7.69431 46.7818,9.17605 38.11059,36.12681 -5.94701,22.17635 -23.43268,42.33865 -45.20091,50.12665 -23.13504,3.25053 -45.500821,9.82771 -68.618363,13.62117 -28.681584,3.03867 -58.550155,-17.81842 -66.2439558,-45.3081 1.59319487,-21.85814 20.7338068,-37.87476 33.2971708,-54.24227 14.137848,-9.68761 30.028515,-17.8483 45.983762,-23.84099 z"
         style="color:#000000;fill:url(#radialGradient4451);fill-opacity:1;stroke:none;stroke-width:1;marker:none;visibility:visible;display:inline;overflow:visible;enable-background:accumulate" />
      <path
         inkscape:connector-curvature="0"
         id="path3372"
         d="m 483.7653,727.97518 c 14.8421,-17.33015 5.1376,-47.50697 23.26813,-60.46993 20.43761,-8.01399 46.19129,-10.11761 64.46519,4.23458 19.96268,16.06277 49.40179,-3.99303 67.93772,15.43181 20.38819,22.70891 -20.57244,42.25354 -9.89555,65.94465 19.93588,11.63814 15.57575,46.39822 -11.82774,39.0883 -31.6939,5.71552 -63.1293,33.67257 -95.91086,16.07619 -23.10593,-14.68485 -53.21469,-30.63801 -57.61298,-60.50181 -2.00646,-11.75261 8.27085,-20.5363 19.57609,-19.80379 z"
         style="color:#000000;fill:url(#radialGradient4453);fill-opacity:1;stroke:none;stroke-width:1;marker:none;visibility:visible;display:inline;overflow:visible;enable-background:accumulate" />
      <path
         inkscape:connector-curvature="0"
         id="path3374"
         d="m 228.36991,759.74415 c 28.5969,-1.59089 63.42081,-2.88037 81.52098,23.89317 22.31805,19.30839 30.19378,53.63576 9.17593,77.06524 -15.59415,28.70043 -47.63562,24.00794 -71.87023,11.80875 -24.57759,-4.40729 -47.54984,19.85978 -71.99533,5.19151 -25.15313,-12.12568 -21.93308,-46.17273 -9.4391,-66.43091 12.22826,-22.80908 32.85254,-39.90892 57.09286,-48.71254 l 2.77618,-1.37961 2.73871,-1.43561 0,0 z"
         style="color:#000000;fill:url(#radialGradient4455);fill-opacity:1;stroke:none;stroke-width:1;marker:none;visibility:visible;display:inline;overflow:visible;enable-background:accumulate" />
      <path
         inkscape:connector-curvature="0"
         id="path3442"
         d="m 279.81226,331.11327 c 30.90034,5.86718 55.54898,62.96959 12.26672,68.79288 -27.96381,9.34344 -89.01404,-15.46492 -59.87139,-49.39849 13.31311,-11.40362 31.22825,-14.71543 47.60467,-19.39439 z"
         style="color:#000000;fill:url(#radialGradient4457);fill-opacity:1;stroke:none;stroke-width:1;marker:none;visibility:visible;display:inline;overflow:visible;enable-background:accumulate" />
    </g>
  </g>
</svg>
